<svg xmlns:xlink="http://www.w3.org/1999/xlink" width="440" height="445" viewBox="0 0 440 445" fill="none" xmlns="http://www.w3.org/2000/svg">
<path d="M205.383 99.3744C207.541 86.0886 220.061 77.0679 233.347 79.2261L415.944 108.888C429.23 111.046 438.25 123.566 436.092 136.852L390.111 419.911C387.953 433.197 375.433 442.218 362.147 440.06L179.55 410.398C166.264 408.24 157.244 395.72 159.402 382.434L205.383 99.3744Z" fill="url(#paint0_linear_2578_29783)"/>
<mask id="mask0_2578_29783" style="mask-type:alpha" maskUnits="userSpaceOnUse" x="138" y="68" width="279" height="377">
<path d="M383.546 103.955L150.546 68.9551H146.546L138.046 444.955H383.546L416.546 263.955L383.546 103.955Z" fill="#D9D9D9"/>
</mask>
<g mask="url(#mask0_2578_29783)">
<g filter="url(#filter0_d_2578_29783)">
<path d="M334.521 353.683L345.396 335.818L227.328 29.3848L147.321 60.0668L193.15 405.726L334.521 353.683Z" fill="url(#paint1_linear_2578_29783)" shape-rendering="crispEdges"/>
</g>
</g>
<path d="M233.285 79.6091L415.882 109.271C428.956 111.395 437.833 123.715 435.709 136.789L389.728 419.849C387.604 432.924 375.284 441.801 362.21 439.677L179.612 410.015C166.538 407.891 157.661 395.571 159.785 382.497L205.766 99.4366C207.89 86.3623 220.21 77.4852 233.285 79.6091Z" stroke="url(#paint2_linear_2578_29783)" stroke-width="0.775959"/>
<g opacity="0.7" filter="url(#filter1_bi_2578_29783)">
<path d="M388.107 124.847C392.187 125.555 394.92 129.437 394.211 133.516L387.799 170.451C387.09 174.53 383.209 177.263 379.129 176.555L356.968 172.707C352.889 171.999 350.156 168.118 350.864 164.038L357.277 127.103C357.985 123.024 361.867 120.291 365.946 120.999L388.107 124.847Z" fill="url(#paint3_linear_2578_29783)"/>
<path d="M393.75 133.436L387.337 170.371C386.673 174.196 383.034 176.758 379.209 176.094L357.048 172.246C353.224 171.582 350.661 167.943 351.325 164.118L357.738 127.184C358.402 123.359 362.041 120.796 365.866 121.46L388.027 125.308C391.852 125.972 394.414 129.611 393.75 133.436Z" stroke="black" stroke-opacity="0.7" stroke-width="0.936209"/>
</g>
<g opacity="0.4">
<path d="M392.406 138.435L392.246 139.358L357.158 133.266L357.318 132.342L368.399 134.266L370.403 122.724L371.326 122.885L369.322 134.427L380.403 136.35L382.407 124.808L383.33 124.969L381.326 136.511L392.406 138.435Z" fill="black"/>
<path d="M364.753 160.742L362.669 172.746L361.745 172.586L363.83 160.582L352.749 158.658L352.91 157.735L371.377 160.941C374.437 161.473 376.486 164.384 375.955 167.443L374.673 174.83L373.749 174.67L375.032 167.283C375.474 164.733 373.766 162.307 371.217 161.865L364.753 160.742Z" fill="black"/>
<path d="M387.837 164.75L387.997 163.827L380.611 162.545L380.45 163.468L387.837 164.75Z" fill="black"/>
<path fill-rule="evenodd" clip-rule="evenodd" d="M371.415 155.241C367.846 154.621 365.454 151.225 366.074 147.655C366.694 144.085 370.09 141.694 373.66 142.314C377.23 142.934 379.621 146.33 379.001 149.9C378.381 153.469 374.985 155.861 371.415 155.241ZM371.576 154.317C368.516 153.786 366.466 150.875 366.998 147.815C367.529 144.756 370.44 142.706 373.5 143.237C376.559 143.768 378.609 146.679 378.078 149.739C377.547 152.799 374.636 154.849 371.576 154.317Z" fill="black"/>
</g>
<path d="M397.352 159.747C397.068 159.702 396.803 159.579 396.584 159.393C396.366 159.206 396.203 158.963 396.114 158.689C396.025 158.416 396.013 158.124 396.08 157.844C396.146 157.564 396.289 157.309 396.491 157.105C397.588 155.998 398.318 154.581 398.581 153.045C398.845 151.51 398.63 149.93 397.965 148.521C397.804 148.149 397.793 147.729 397.935 147.35C398.077 146.971 398.362 146.662 398.728 146.488C399.094 146.314 399.513 146.29 399.897 146.42C400.28 146.549 400.599 146.823 400.784 147.183C401.729 149.172 402.036 151.404 401.663 153.574C401.29 155.744 400.257 157.746 398.703 159.306C398.529 159.481 398.315 159.612 398.081 159.689C397.846 159.766 397.596 159.786 397.352 159.747Z" fill="white"/>
<path d="M402.796 163.833C402.528 163.783 402.279 163.664 402.072 163.488C401.865 163.311 401.708 163.084 401.616 162.828C401.523 162.572 401.5 162.297 401.547 162.029C401.594 161.761 401.71 161.51 401.884 161.301C403.645 159.304 404.817 156.857 405.267 154.233C405.718 151.608 405.43 148.91 404.436 146.44C404.358 146.25 404.319 146.047 404.32 145.841C404.321 145.636 404.362 145.433 404.442 145.244C404.522 145.054 404.638 144.883 404.784 144.738C404.929 144.594 405.102 144.48 405.293 144.402C405.483 144.324 405.686 144.285 405.891 144.286C406.097 144.287 406.3 144.329 406.489 144.408C406.678 144.488 406.85 144.604 406.995 144.75C407.139 144.896 407.253 145.069 407.331 145.259C408.543 148.268 408.894 151.556 408.345 154.753C407.796 157.951 406.369 160.933 404.222 163.366C404.043 163.557 403.818 163.701 403.569 163.782C403.319 163.864 403.054 163.882 402.796 163.833V163.833Z" fill="white"/>
<path d="M408.446 168.098C408.176 168.049 407.923 167.929 407.714 167.751C407.557 167.619 407.428 167.457 407.334 167.274C407.24 167.092 407.182 166.893 407.165 166.688C407.148 166.484 407.172 166.278 407.234 166.083C407.297 165.887 407.397 165.706 407.53 165.55C409.974 162.641 411.601 159.136 412.243 155.391C412.886 151.647 412.522 147.8 411.188 144.243C411.08 143.865 411.119 143.46 411.297 143.11C411.475 142.759 411.778 142.489 412.146 142.352C412.514 142.215 412.921 142.223 413.284 142.372C413.647 142.522 413.941 142.803 414.106 143.16C415.636 147.238 416.053 151.65 415.316 155.943C414.579 160.236 412.714 164.255 409.911 167.59C409.733 167.795 409.503 167.95 409.246 168.039C408.989 168.128 408.713 168.149 408.446 168.098V168.098Z" fill="white"/>
<rect x="337.56" y="351.697" width="26.8487" height="64.3102" rx="13.4244" transform="rotate(9.84996 337.56 351.697)" stroke="#8B8F9C" stroke-width="1.24743"/>
<rect x="351.708" y="354.154" width="26.8487" height="64.3102" rx="13.4244" transform="rotate(9.84996 351.708 354.154)" stroke="#8B8F9C" stroke-width="1.24743"/>
<path d="M8.56019 105.909C3.8326 93.446 10.1034 79.5103 22.5663 74.7827L196.749 8.70967C209.212 3.98207 223.148 10.2529 227.876 22.7158L341.297 321.718C346.024 334.181 339.753 348.117 327.29 352.845L153.107 418.918C140.644 423.645 126.709 417.374 121.981 404.911L8.56019 105.909Z" fill="url(#paint4_linear_2578_29783)" fill-opacity="0.01"/>
<path fill-rule="evenodd" clip-rule="evenodd" d="M197.016 9.41296L22.8331 75.486C10.7586 80.0663 4.68323 93.5677 9.26349 105.642L122.684 404.645C127.265 416.719 140.766 422.795 152.841 418.214L327.024 352.141C339.098 347.561 345.173 334.06 340.593 321.985L227.172 22.9826C222.592 10.9081 209.091 4.83272 197.016 9.41296ZM22.5663 74.7827C10.1034 79.5103 3.83259 93.446 8.56019 105.909L121.981 404.911C126.709 417.374 140.644 423.645 153.107 418.918L327.29 352.845C339.753 348.117 346.024 334.181 341.297 321.718L227.876 22.7158C223.148 10.2529 209.212 3.98208 196.749 8.70967L22.5663 74.7827Z" fill="black"/>
<path d="M8.79127 106.357C4.06367 93.8943 10.3344 79.9585 22.7974 75.231L196.98 9.15791C209.443 4.43032 223.379 10.7011 228.107 23.1641L341.528 322.167C346.255 334.629 339.984 348.565 327.521 353.293L153.338 419.366C140.875 424.093 126.94 417.823 122.212 405.36L8.79127 106.357Z" fill="#B6C490" fill-opacity="0.1"/>
<mask id="mask1_2578_29783" style="mask-type:alpha" maskUnits="userSpaceOnUse" x="6" y="6" width="339" height="417">
<path d="M7.39911 102.848C3.44457 92.4229 8.68995 80.7659 19.115 76.8113L200.678 7.93886C211.103 3.98431 222.76 9.22971 226.715 19.6548L342.935 326.037C346.889 336.462 341.644 348.119 331.219 352.074L149.656 420.946C139.231 424.901 127.574 419.655 123.619 409.23L7.39911 102.848Z" fill="#88B0FF"/>
</mask>
<g mask="url(#mask1_2578_29783)">
<path d="M-46.4922 -11.145L371.405 -11.145L371.405 408.306L-46.4922 408.306L-46.4922 -11.145Z" fill="#7F56FF"/>
<path fill-rule="evenodd" clip-rule="evenodd" d="M-181.287 396.086C-188.824 401.507 -195.892 406.593 -204.516 420.75L-215.793 413.881C-205.815 397.499 -197.118 391.207 -188.901 385.296L-188.803 385.226C-181.267 379.804 -174.198 374.719 -165.574 360.562C-156.951 346.404 -155.677 337.793 -154.318 328.611L-154.3 328.492C-152.819 318.481 -151.22 307.869 -141.241 291.487C-131.263 275.105 -122.566 268.813 -114.349 262.902L-114.251 262.832C-106.715 257.41 -99.646 252.325 -91.0224 238.167C-82.3988 224.01 -81.1233 215.396 -79.7634 206.212L-79.7458 206.093C-78.2629 196.08 -76.6626 185.466 -66.6842 169.084C-56.7057 152.702 -48.0084 146.41 -39.792 140.5L-39.6929 140.429C-32.1574 135.008 -25.0906 129.925 -16.4704 115.773C-7.84941 101.62 -6.5739 93.006 -5.21392 83.8217L-5.19634 83.703C-3.71359 73.6904 -2.11331 63.0758 7.86263 46.698C17.8386 30.3202 26.536 24.0287 34.7525 18.1177L34.8499 18.0476C42.3867 12.6258 49.4554 7.54071 58.0764 -6.61263C66.6968 -20.765 67.9727 -29.3786 69.3333 -38.5636L69.3511 -38.6841C70.8346 -48.6981 72.4363 -59.3144 82.4147 -75.6963C92.3931 -92.0782 101.09 -98.3697 109.307 -104.281L109.405 -104.351C116.941 -109.773 124.01 -114.858 132.634 -129.016C141.257 -143.173 142.533 -151.787 143.893 -160.971L143.91 -161.09C145.393 -171.103 146.993 -181.717 156.972 -198.099C166.95 -214.481 175.648 -220.773 183.864 -226.684L183.962 -226.754C191.499 -232.176 198.567 -237.261 207.191 -251.418C215.815 -265.576 217.09 -274.19 218.45 -283.374L218.468 -283.493C219.95 -293.506 221.551 -304.12 231.529 -320.502C241.508 -336.884 250.205 -343.176 258.422 -349.087L258.519 -349.157C266.056 -354.578 273.125 -359.664 281.748 -373.821C290.372 -387.979 291.647 -396.593 293.007 -405.777L293.025 -405.896C294.508 -415.909 296.108 -426.523 306.086 -442.905C316.065 -459.287 324.762 -465.578 332.979 -471.49L333.077 -471.56C340.613 -476.982 347.682 -482.067 356.305 -496.224C364.929 -510.381 366.204 -518.995 367.565 -528.179L367.583 -528.3C369.066 -538.314 370.668 -548.93 380.649 -565.316C390.63 -581.703 399.327 -587.994 407.544 -593.905L407.642 -593.976C415.178 -599.397 422.247 -604.482 430.873 -618.644L442.151 -611.775C432.17 -595.389 423.473 -589.097 415.256 -583.186L415.158 -583.116C407.622 -577.694 400.553 -572.609 391.927 -558.447C383.3 -544.284 382.023 -535.667 380.663 -526.482L380.645 -526.365C379.162 -516.351 377.562 -505.737 367.583 -489.355C357.605 -472.973 348.907 -466.681 340.691 -460.77L340.593 -460.7C333.056 -455.279 325.988 -450.193 317.364 -436.036C308.74 -421.878 307.465 -413.264 306.105 -404.08L306.087 -403.961C304.605 -393.948 303.004 -383.334 293.026 -366.952C283.047 -350.57 274.35 -344.279 266.133 -338.367L266.036 -338.297C258.499 -332.876 251.43 -327.79 242.807 -313.633C234.183 -299.475 232.908 -290.861 231.548 -281.677L231.53 -281.558C230.047 -271.545 228.447 -260.931 218.469 -244.549C208.49 -228.167 199.793 -221.876 191.576 -215.964L191.478 -215.894C183.942 -210.473 176.873 -205.387 168.249 -191.23C159.626 -177.072 158.35 -168.458 156.99 -159.274L156.973 -159.155C155.49 -149.143 153.89 -138.528 143.911 -122.146C133.933 -105.764 125.235 -99.4727 117.019 -93.5616L116.921 -93.4914C109.385 -88.0697 102.316 -82.9846 93.6922 -68.827C85.0679 -54.6681 83.7915 -46.0516 82.4308 -36.8659L82.4135 -36.749C80.9301 -26.7357 79.3299 -16.1211 69.3539 0.25668C59.378 16.6345 50.6805 22.926 42.464 28.837L42.3665 28.9071C34.8298 34.329 27.7611 39.4141 19.1402 53.5673C10.5192 67.7206 9.24371 76.3344 7.88374 85.5186L7.86615 85.6374C6.38338 95.65 4.78313 106.265 -5.19282 122.642C-15.1689 139.02 -23.8652 145.31 -32.081 151.22L-32.1772 151.289C-39.7133 156.71 -46.7824 161.794 -55.4066 175.953C-64.0302 190.111 -65.3057 198.725 -66.6656 207.908L-66.6833 208.027C-68.1661 218.04 -69.7664 228.655 -79.7449 245.037C-89.7233 261.419 -98.4206 267.71 -106.637 273.621L-106.735 273.691C-114.272 279.113 -121.34 284.198 -129.964 298.356C-138.587 312.513 -139.862 321.125 -141.22 330.306L-141.238 330.425C-142.719 340.436 -144.318 351.049 -154.297 367.431C-164.275 383.813 -172.973 390.104 -181.189 396.016L-181.287 396.086Z" fill="url(#paint5_linear_2578_29783)"/>
<path fill-rule="evenodd" clip-rule="evenodd" d="M-147.081 416.75C-154.419 422.302 -161.342 427.54 -170.008 441.769L-181.286 434.899C-171.351 418.589 -162.938 412.189 -154.953 406.147L-154.857 406.074C-147.519 400.522 -140.596 395.283 -131.93 381.055C-123.263 366.827 -121.784 358.272 -120.217 349.205L-120.197 349.086C-118.491 339.219 -116.664 328.807 -106.729 312.498C-96.7945 296.188 -88.3816 289.788 -80.3964 283.745L-80.3 283.672C-72.9626 278.12 -66.0397 272.882 -57.3731 258.653C-48.7064 244.425 -47.2278 235.87 -45.6606 226.804L-45.64 226.684C-43.9342 216.817 -42.107 206.406 -32.1724 190.096C-22.2378 173.786 -13.8249 167.386 -5.84011 161.344L-5.74229 161.27C1.59411 155.719 8.51509 150.483 17.1783 136.26C25.8423 122.036 27.321 113.482 28.8883 104.414L28.9088 104.296C30.6145 94.4283 32.4417 84.0168 42.3737 67.711C52.3058 51.4052 60.7188 45.0052 68.7038 38.9629L68.8 38.8901C76.1377 33.3377 83.0605 28.0993 91.7245 13.8753C100.388 -0.347638 101.867 -8.90197 103.435 -17.9699L103.456 -18.0906C105.162 -27.959 106.991 -38.3725 116.925 -54.6823C126.86 -70.9922 135.273 -77.3922 143.258 -83.4347L143.354 -83.5077C150.692 -89.0598 157.615 -94.2983 166.281 -108.527C174.948 -122.755 176.426 -131.309 177.994 -140.376L178.014 -140.495C179.72 -150.363 181.547 -160.774 191.482 -177.084C201.416 -193.394 209.829 -199.794 217.815 -205.837L217.911 -205.91C225.248 -211.462 232.171 -216.7 240.838 -230.928C249.504 -245.157 250.983 -253.711 252.55 -262.778L252.571 -262.897C254.277 -272.765 256.104 -283.176 266.038 -299.486C275.973 -315.796 284.386 -322.196 292.371 -328.239L292.468 -328.311C299.805 -333.864 306.728 -339.102 315.394 -353.33C324.061 -367.559 325.54 -376.113 327.107 -385.18L327.128 -385.299C328.833 -395.167 330.66 -405.578 340.595 -421.888C350.53 -438.198 358.943 -444.598 366.928 -450.64L367.024 -450.713C374.362 -456.265 381.285 -461.504 389.951 -475.732C398.617 -489.96 400.096 -498.514 401.664 -507.582L401.685 -507.702C403.391 -517.571 405.22 -527.984 415.157 -544.298C425.094 -560.613 433.507 -567.013 441.492 -573.055L441.589 -573.128C448.926 -578.68 455.849 -583.919 464.518 -598.151L475.796 -591.282C465.859 -574.968 457.446 -568.568 449.461 -562.525L449.364 -562.452C442.027 -556.9 435.104 -551.662 426.435 -537.429C417.765 -523.195 416.285 -514.638 414.717 -505.57L414.697 -505.452C412.99 -495.584 411.163 -485.173 401.229 -468.863C391.294 -452.553 382.881 -446.153 374.896 -440.11L374.799 -440.037C367.462 -434.485 360.539 -429.247 351.873 -415.019C343.206 -400.79 341.727 -392.236 340.16 -383.169L340.14 -383.05C338.434 -373.182 336.607 -362.771 326.672 -346.461C316.737 -330.151 308.325 -323.751 300.339 -317.709L300.243 -317.636C292.905 -312.083 285.983 -306.845 277.316 -292.617C268.649 -278.389 267.171 -269.834 265.604 -260.767L265.583 -260.648C263.877 -250.781 262.05 -240.369 252.115 -224.059C242.181 -207.749 233.768 -201.349 225.783 -195.307L225.686 -195.234C218.349 -189.682 211.426 -184.443 202.759 -170.215C194.093 -155.987 192.614 -147.432 191.047 -138.365L191.026 -138.246C189.321 -128.379 187.493 -117.967 177.559 -101.657C167.624 -85.3473 159.211 -78.9473 151.226 -72.9048L151.13 -72.8319C143.792 -67.2797 136.869 -62.0413 128.203 -47.813C119.535 -33.5836 118.056 -25.0265 116.488 -15.9578L116.468 -15.8406C114.761 -5.97272 112.934 4.43888 103.002 20.7447C93.07 37.0504 84.6569 43.4505 76.6719 49.4928L76.5757 49.5656C69.238 55.118 62.3153 60.3564 53.6513 74.5803C44.9873 88.8042 43.5086 97.3587 41.9413 106.426L41.9208 106.545C40.2151 116.412 38.388 126.824 28.4559 143.129C18.5237 159.435 10.1119 165.833 2.12751 171.874L2.0325 171.946C-5.30453 177.498 -12.2277 182.736 -20.8949 196.965C-29.5615 211.193 -31.0402 219.748 -32.6074 228.815L-32.628 228.934C-34.3337 238.801 -36.1609 249.213 -46.0955 265.523C-56.0301 281.833 -64.443 288.233 -72.4283 294.275L-72.5247 294.348C-79.8621 299.9 -86.7849 305.139 -95.4516 319.367C-104.118 333.595 -105.597 342.15 -107.164 351.217L-107.185 351.336C-108.89 361.203 -110.718 371.615 -120.652 387.924C-130.587 404.234 -139 410.634 -146.985 416.677L-147.081 416.75Z" fill="url(#paint6_linear_2578_29783)" fill-opacity="0.5"/>
<path fill-rule="evenodd" clip-rule="evenodd" d="M-112.574 437.769C-119.911 443.321 -126.834 448.56 -135.501 462.788L-146.778 455.918C-136.843 439.609 -128.431 433.209 -120.445 427.166L-120.349 427.093C-113.012 421.541 -106.089 416.302 -97.422 402.074C-88.7554 387.846 -87.2768 379.291 -85.7095 370.225L-85.6889 370.105C-83.9832 360.238 -82.156 349.826 -72.2214 333.517C-62.2868 317.207 -53.8739 310.807 -45.8887 304.764L-45.7923 304.691C-38.4549 299.139 -31.532 293.901 -22.8654 279.672C-14.1988 265.444 -12.7201 256.889 -11.1529 247.823L-11.1323 247.703C-9.42654 237.836 -7.59935 227.425 2.33525 211.115C12.2699 194.805 20.6828 188.405 28.6676 182.363L28.7654 182.289C36.1018 176.738 43.0228 171.502 51.686 157.279C60.35 143.055 61.8287 134.501 63.396 125.433L63.4165 125.315C65.1222 115.447 66.9493 105.036 76.8814 88.7301C86.8135 72.4243 95.2265 66.0242 103.212 59.9819L103.308 59.9091C110.645 54.3567 117.568 49.1183 126.232 34.8944C134.896 20.6714 136.375 12.1171 137.943 3.04915L137.963 2.92847C139.67 -6.93998 141.498 -17.3535 151.433 -33.6632C161.367 -49.9732 169.78 -56.3732 177.766 -62.4157L177.862 -62.4886C185.199 -68.0408 192.122 -73.2792 200.789 -87.5075C209.455 -101.736 210.934 -110.29 212.501 -119.357L212.522 -119.476C214.228 -129.344 216.055 -139.755 225.989 -156.065C235.924 -172.375 244.337 -178.775 252.322 -184.818L252.419 -184.891C259.756 -190.443 266.679 -195.681 275.346 -209.909C284.012 -224.138 285.491 -232.692 287.058 -241.759L287.079 -241.878C288.784 -251.746 290.612 -262.157 300.546 -278.467C310.481 -294.777 318.894 -301.177 326.879 -307.22L326.975 -307.292C334.313 -312.845 341.236 -318.083 349.902 -332.311C358.569 -346.54 360.047 -355.094 361.615 -364.161L361.635 -364.28C363.341 -374.148 365.168 -384.559 375.103 -400.869C385.037 -417.179 393.45 -423.579 401.436 -429.621L401.532 -429.694C408.869 -435.246 415.792 -440.485 424.459 -454.713C433.125 -468.941 434.604 -477.495 436.172 -486.563L436.193 -486.683C437.899 -496.552 439.728 -506.965 449.665 -523.279C459.602 -539.594 468.015 -545.994 476 -552.036L476.097 -552.109C483.434 -557.661 490.357 -562.9 499.026 -577.132L510.304 -570.263C500.366 -553.949 491.954 -547.549 483.968 -541.506L483.872 -541.433C476.534 -535.881 469.611 -530.643 460.942 -516.41C452.272 -502.176 450.793 -493.619 449.225 -484.551L449.205 -484.433C447.498 -474.565 445.671 -464.154 435.736 -447.844C425.802 -431.534 417.389 -425.134 409.404 -419.091L409.307 -419.018C401.97 -413.466 395.047 -408.228 386.38 -394C377.714 -379.771 376.235 -371.217 374.668 -362.15L374.647 -362.031C372.942 -352.163 371.114 -341.752 361.18 -325.442C351.245 -309.132 342.832 -302.732 334.847 -296.69L334.75 -296.616C327.413 -291.064 320.49 -285.826 311.824 -271.598C303.157 -257.369 301.678 -248.815 300.111 -239.748L300.091 -239.629C298.385 -229.762 296.558 -219.35 286.623 -203.04C276.688 -186.73 268.276 -180.33 260.29 -174.288L260.194 -174.215C252.857 -168.663 245.934 -163.424 237.267 -149.196C228.6 -134.968 227.122 -126.413 225.555 -117.346L225.534 -117.227C223.828 -107.36 222.001 -96.9481 212.066 -80.6382C202.132 -64.3282 193.719 -57.9282 185.734 -51.8857L185.637 -51.8128C178.3 -46.2607 171.377 -41.0222 162.71 -26.7939C154.043 -12.5645 152.564 -4.00747 150.996 5.0612L150.975 5.17842C149.269 15.0463 147.442 25.4579 137.51 41.7637C127.578 58.0695 119.165 64.4695 111.18 70.5119L111.083 70.5846C103.746 76.137 96.8229 81.3754 88.1589 95.5994C79.495 109.823 78.0163 118.378 76.449 127.445L76.4285 127.564C74.7228 137.431 72.8957 147.843 62.9636 164.148C53.0314 180.454 44.6196 186.852 36.6352 192.893L36.5402 192.965C29.2032 198.517 22.28 203.755 13.6128 217.984C4.9462 232.212 3.46751 240.767 1.90028 249.834L1.87969 249.953C0.173967 259.82 -1.65322 270.232 -11.5878 286.542C-21.5224 302.852 -29.9353 309.252 -37.9206 315.294L-38.017 315.367C-45.3544 320.919 -52.2772 326.158 -60.9439 340.386C-69.6105 354.614 -71.0892 363.169 -72.6564 372.236L-72.677 372.355C-74.3827 382.222 -76.2099 392.634 -86.1445 408.944C-96.0791 425.253 -104.492 431.653 -112.477 437.696L-112.574 437.769Z" fill="url(#paint7_linear_2578_29783)" fill-opacity="0.5"/>
<path fill-rule="evenodd" clip-rule="evenodd" d="M-78.0659 458.788C-85.4033 464.34 -92.3262 469.579 -100.993 483.807L-112.27 476.938C-102.336 460.628 -93.9229 454.228 -85.9377 448.185L-85.8413 448.112C-78.5038 442.56 -71.581 437.321 -62.9144 423.093C-54.2477 408.865 -52.7691 400.31 -51.2018 391.244L-51.1812 391.124C-49.4755 381.257 -47.6483 370.846 -37.7137 354.536C-27.7791 338.226 -19.3662 331.826 -11.381 325.783L-11.2846 325.71C-3.94718 320.158 2.97569 314.92 11.6423 300.691C20.3089 286.463 21.7876 277.909 23.3548 268.842L23.3754 268.723C25.0812 258.855 26.9083 248.444 36.8429 232.134C46.7775 215.824 55.1905 209.424 63.1753 203.382L63.2731 203.308C70.6095 197.757 77.5305 192.521 86.1937 178.298C94.8577 164.074 96.3364 155.52 97.9036 146.452L97.9242 146.334C99.6299 136.466 101.457 126.055 111.389 109.749C121.321 93.4433 129.734 87.0433 137.719 81.0009L137.815 80.9281C145.153 75.3758 152.076 70.1374 160.74 55.9134C169.403 41.6904 170.882 33.1361 172.45 24.0682L172.471 23.9475C174.177 14.0791 176.006 3.66559 185.941 -12.6442C195.875 -28.9542 204.288 -35.3542 212.273 -41.3966L212.37 -41.4696C219.707 -47.0217 226.63 -52.2602 235.297 -66.4885C243.963 -80.7167 245.442 -89.2713 247.009 -98.3381L247.03 -98.4573C248.735 -108.325 250.563 -118.736 260.497 -135.046C270.432 -151.356 278.845 -157.756 286.83 -163.799L286.926 -163.872C294.264 -169.424 301.187 -174.662 309.853 -188.89C318.52 -203.119 319.999 -211.673 321.566 -220.74L321.586 -220.859C323.292 -230.727 325.119 -241.138 335.054 -257.448C344.988 -273.758 353.401 -280.158 361.387 -286.2L361.483 -286.273C368.82 -291.826 375.743 -297.064 384.41 -311.292C393.077 -325.521 394.555 -334.075 396.122 -343.142L396.143 -343.261C397.849 -353.128 399.676 -363.54 409.61 -379.85C419.545 -396.16 427.958 -402.56 435.943 -408.602L436.04 -408.675C443.377 -414.227 450.3 -419.466 458.967 -433.694C467.633 -447.922 469.112 -456.476 470.679 -465.543L470.7 -465.664C472.407 -475.533 474.235 -485.946 484.172 -502.26C494.11 -518.574 502.522 -524.974 510.508 -531.017L510.604 -531.09C517.941 -536.642 524.864 -541.881 533.534 -556.113L544.811 -549.244C534.874 -532.93 526.461 -526.53 518.476 -520.487L518.379 -520.414C511.042 -514.862 504.119 -509.624 495.45 -495.391C486.78 -481.157 485.3 -472.6 483.733 -463.532L483.712 -463.414C482.006 -453.546 480.179 -443.135 470.244 -426.825C460.309 -410.515 451.897 -404.115 443.911 -398.072L443.815 -397.999C436.477 -392.447 429.555 -387.209 420.888 -372.981C412.221 -358.752 410.743 -350.198 409.176 -341.131L409.155 -341.012C407.449 -331.144 405.622 -320.733 395.687 -304.423C385.753 -288.113 377.34 -281.713 369.355 -275.671L369.258 -275.597C361.921 -270.045 354.998 -264.807 346.331 -250.579C337.665 -236.35 336.186 -227.796 334.619 -218.729L334.598 -218.61C332.893 -208.742 331.065 -198.331 321.131 -182.021C311.196 -165.711 302.783 -159.311 294.798 -153.269L294.702 -153.196C287.364 -147.643 280.441 -142.405 271.775 -128.177C263.108 -113.948 261.629 -105.394 260.062 -96.327L260.042 -96.208C258.336 -86.3406 256.509 -75.9291 246.574 -59.6191C236.639 -43.3092 228.227 -36.9092 220.241 -30.8667L220.145 -30.7938C212.808 -25.2416 205.885 -20.0032 197.218 -5.77489C188.551 8.45453 187.071 17.0116 185.503 26.0802L185.483 26.1975C183.777 36.0654 181.95 46.477 172.017 62.7827C162.085 79.0885 153.672 85.4885 145.687 91.5309L145.591 91.6037C138.253 97.1561 131.331 102.394 122.667 116.618C114.003 130.842 112.524 139.397 110.957 148.464L110.936 148.583C109.23 158.45 107.403 168.862 97.4713 185.167C87.5391 201.473 79.1272 207.871 71.1429 213.912L71.0479 213.984C63.7109 219.536 56.7877 224.774 48.1205 239.003C39.4539 253.231 37.9752 261.786 36.408 270.853L36.3874 270.972C34.6817 280.839 32.8545 291.251 22.9199 307.561C12.9853 323.871 4.57234 330.271 -3.41287 336.313L-3.50929 336.386C-10.8467 341.938 -17.7696 347.177 -26.4362 361.405C-35.1028 375.633 -36.5815 384.188 -38.1487 393.255L-38.1693 393.374C-39.875 403.241 -41.7022 413.653 -51.6368 429.963C-61.5714 446.272 -69.9843 452.673 -77.9695 458.715L-78.0659 458.788Z" fill="url(#paint8_linear_2578_29783)" fill-opacity="0.5"/>
<path fill-rule="evenodd" clip-rule="evenodd" d="M-43.5582 479.807C-50.8957 485.359 -57.8185 490.598 -66.4851 504.826L-77.7627 497.957C-67.8281 481.647 -59.4152 475.247 -51.43 469.204L-51.3336 469.131C-43.9962 463.579 -37.0733 458.341 -28.4067 444.112C-19.7401 429.884 -18.2614 421.329 -16.6942 412.263L-16.6736 412.143C-14.9678 402.276 -13.1406 391.865 -3.20603 375.555C6.72857 359.245 15.1415 352.845 23.1267 346.802L23.2231 346.729C30.5605 341.177 37.4834 335.939 46.15 321.71C54.8166 307.482 56.2953 298.928 57.8625 289.861L57.8831 289.742C59.5888 279.874 61.416 269.463 71.3506 253.153C81.2852 236.843 89.6981 230.443 97.683 224.401L97.7808 224.327C105.117 218.776 112.038 213.54 120.701 199.317C129.365 185.093 130.844 176.539 132.411 167.472L132.432 167.353C134.138 157.485 135.965 147.074 145.897 130.768C155.829 114.462 164.242 108.062 172.227 102.02L172.323 101.947C179.661 96.3948 186.584 91.1564 195.248 76.9325C203.911 62.7095 205.39 54.1552 206.958 45.0872L206.979 44.9666C208.685 35.0981 210.514 24.6846 220.448 8.37484C230.383 -7.93511 238.796 -14.3351 246.781 -20.3776L246.877 -20.4505C254.215 -26.0027 261.138 -31.2411 269.804 -45.4694C278.471 -59.6976 279.95 -68.2522 281.517 -77.319L281.537 -77.4382C283.243 -87.3056 285.07 -97.7171 295.005 -114.027C304.939 -130.337 313.352 -136.737 321.338 -142.779L321.434 -142.852C328.771 -148.405 335.694 -153.643 344.361 -167.871C353.028 -182.1 354.506 -190.654 356.073 -199.721L356.094 -199.84C357.8 -209.708 359.627 -220.119 369.562 -236.429C379.496 -252.739 387.909 -259.139 395.894 -265.181L395.991 -265.254C403.328 -270.806 410.251 -276.045 418.918 -290.273C427.584 -304.501 429.063 -313.056 430.63 -322.123L430.651 -322.242C432.356 -332.109 434.184 -342.521 444.118 -358.831C454.053 -375.141 462.466 -381.541 470.451 -387.583L470.547 -387.656C477.885 -393.208 484.808 -398.447 493.474 -412.675C502.14 -426.902 503.619 -435.457 505.187 -444.524L505.208 -444.645C506.914 -454.514 508.743 -464.927 518.68 -481.241C528.617 -497.555 537.03 -503.955 545.015 -509.998L545.112 -510.071C552.449 -515.623 559.372 -520.862 568.041 -535.094L579.319 -528.225C569.382 -511.911 560.969 -505.511 552.984 -499.468L552.887 -499.395C545.55 -493.843 538.627 -488.605 529.958 -474.372C521.288 -460.138 519.808 -451.581 518.24 -442.513L518.22 -442.395C516.514 -432.527 514.686 -422.116 504.752 -405.806C494.817 -389.496 486.404 -383.096 478.419 -377.053L478.322 -376.98C470.985 -371.428 464.062 -366.19 455.396 -351.962C446.729 -337.733 445.25 -329.179 443.683 -320.112L443.663 -319.993C441.957 -310.125 440.13 -299.714 430.195 -283.404C420.261 -267.094 411.848 -260.694 403.862 -254.651L403.766 -254.578C396.428 -249.026 389.506 -243.788 380.839 -229.56C372.172 -215.331 370.694 -206.777 369.127 -197.71L369.106 -197.591C367.4 -187.723 365.573 -177.312 355.638 -161.002C345.704 -144.692 337.291 -138.292 329.306 -132.25L329.209 -132.177C321.872 -126.624 314.949 -121.386 306.282 -107.158C297.616 -92.9294 296.137 -84.3748 294.57 -75.3079L294.549 -75.1889C292.844 -65.3215 291.016 -54.91 281.082 -38.6001C271.147 -22.2901 262.734 -15.8901 254.749 -9.84765L254.653 -9.77473C247.315 -4.22258 240.392 1.01586 231.726 15.2442C223.058 29.4736 221.579 38.0306 220.011 47.0993L219.991 47.2165C218.284 57.0844 216.457 67.496 206.525 83.8018C196.593 100.108 188.18 106.508 180.195 112.55L180.099 112.623C172.761 118.175 165.838 123.413 157.174 137.637C148.51 151.861 147.032 160.416 145.464 169.483L145.444 169.602C143.738 179.469 141.911 189.881 131.979 206.186C122.047 222.492 113.635 228.89 105.651 234.932L105.556 235.003C98.2185 240.555 91.2953 245.793 82.6282 260.022C73.9616 274.25 72.4829 282.805 70.9157 291.872L70.8951 291.991C69.1893 301.858 67.3622 312.27 57.4276 328.58C47.493 344.89 39.08 351.29 31.0948 357.332L30.9984 357.405C23.661 362.957 16.7381 368.196 8.07152 382.424C-0.595105 396.652 -2.07378 405.207 -3.641 414.274L-3.66159 414.393C-5.36732 424.26 -7.19451 434.672 -17.1291 450.982C-27.0637 467.292 -35.4766 473.692 -43.4618 479.734L-43.5582 479.807Z" fill="url(#paint9_linear_2578_29783)" fill-opacity="0.5"/>
<path fill-rule="evenodd" clip-rule="evenodd" d="M-9.05044 500.826C-16.3878 506.378 -23.3107 511.617 -31.9773 525.845L-43.2549 518.976C-33.3203 502.666 -24.9074 496.266 -16.9222 490.223L-16.8257 490.15C-9.48834 484.598 -2.56547 479.36 6.10115 465.131C14.7678 450.903 16.2464 442.348 17.8137 433.282L17.8343 433.163C19.54 423.295 21.3672 412.884 31.3018 396.574C41.2364 380.264 49.6493 373.864 57.6345 367.821L57.7309 367.748C65.0683 362.196 71.9912 356.958 80.6578 342.729C89.3244 328.501 90.8031 319.947 92.3703 310.88L92.3909 310.761C94.0967 300.893 95.9238 290.482 105.858 274.172C115.793 257.862 124.206 251.462 132.191 245.42L132.289 245.346C139.625 239.795 146.546 234.559 155.209 220.336C163.873 206.112 165.352 197.558 166.919 188.491L166.94 188.372C168.645 178.505 170.473 168.093 180.405 151.787C190.337 135.481 198.75 129.081 206.735 123.039L206.831 122.966C214.169 117.414 221.091 112.175 229.755 97.9515C238.419 83.7285 239.898 75.1742 241.466 66.1063L241.487 65.9856C243.193 56.1171 245.022 45.7037 254.956 29.3939C264.891 13.0839 273.304 6.68393 281.289 0.641436L281.385 0.568517C288.723 -4.98364 295.645 -10.2221 304.312 -24.4504C312.979 -38.6786 314.457 -47.2332 316.025 -56.3L316.045 -56.4192C317.751 -66.2866 319.578 -76.6981 329.513 -93.008C339.447 -109.318 347.86 -115.718 355.845 -121.76L355.942 -121.833C363.279 -127.386 370.202 -132.624 378.869 -146.852C387.535 -161.081 389.014 -169.635 390.581 -178.702L390.602 -178.821C392.308 -188.689 394.135 -199.1 404.069 -215.41C414.004 -231.72 422.417 -238.12 430.402 -244.162L430.498 -244.235C437.836 -249.787 444.759 -255.026 453.425 -269.254C462.092 -283.482 463.571 -292.037 465.138 -301.104L465.158 -301.223C466.864 -311.09 468.691 -321.502 478.626 -337.812C488.561 -354.122 496.974 -360.522 504.959 -366.564L505.055 -366.637C512.393 -372.189 519.315 -377.428 527.982 -391.656C536.648 -405.883 538.127 -414.438 539.695 -423.505L539.716 -423.626C541.422 -433.495 543.251 -443.908 553.188 -460.222C563.125 -476.536 571.538 -482.936 579.523 -488.979L579.62 -489.052C586.957 -494.604 593.88 -499.843 602.549 -514.075L613.827 -507.206C603.89 -490.892 595.477 -484.492 587.491 -478.449L587.395 -478.376C580.058 -472.824 573.135 -467.586 564.465 -453.353C555.795 -439.119 554.316 -430.562 552.748 -421.494L552.728 -421.376C551.021 -411.508 549.194 -401.097 539.26 -384.787C529.325 -368.477 520.912 -362.077 512.927 -356.034L512.83 -355.961C505.493 -350.409 498.57 -345.171 489.904 -330.942C481.237 -316.714 479.758 -308.16 478.191 -299.093L478.17 -298.974C476.465 -289.106 474.638 -278.695 464.703 -262.385C454.768 -246.075 446.355 -239.675 438.37 -233.632L438.274 -233.559C430.936 -228.007 424.013 -222.769 415.347 -208.541C406.68 -194.312 405.202 -185.758 403.634 -176.691L403.614 -176.572C401.908 -166.704 400.081 -156.293 390.146 -139.983C380.212 -123.673 371.799 -117.273 363.814 -111.231L363.717 -111.158C356.38 -105.605 349.457 -100.367 340.79 -86.1387C332.124 -71.9104 330.645 -63.3558 329.078 -54.2889L329.057 -54.1699C327.351 -44.3025 325.524 -33.891 315.59 -17.5811C305.655 -1.27111 297.242 5.12889 289.257 11.1714L289.16 11.2443C281.823 16.7965 274.9 22.0349 266.234 36.2632C257.566 50.4926 256.087 59.0497 254.519 68.1183L254.498 68.2355C252.792 78.1034 250.965 88.515 241.033 104.821C231.101 121.127 222.688 127.527 214.703 133.569L214.607 133.642C207.269 139.194 200.346 144.433 191.682 158.656C183.018 172.88 181.54 181.435 179.972 190.502L179.952 190.621C178.246 200.488 176.419 210.9 166.487 227.205C156.555 243.511 148.143 249.909 140.158 255.951L140.063 256.022C132.726 261.574 125.803 266.812 117.136 281.041C108.469 295.269 106.991 303.824 105.423 312.891L105.403 313.01C103.697 322.877 101.87 333.289 91.9354 349.599C82.0008 365.909 73.5878 372.309 65.6026 378.351L65.5062 378.424C58.1688 383.976 51.2459 389.215 42.5793 403.443C33.9127 417.671 32.434 426.226 30.8668 435.293L30.8462 435.412C29.1405 445.279 27.3133 455.691 17.3787 472.001C7.4441 488.311 -0.968824 494.711 -8.95403 500.753L-9.05044 500.826Z" fill="url(#paint10_linear_2578_29783)" fill-opacity="0.5"/>
<path fill-rule="evenodd" clip-rule="evenodd" d="M25.4573 521.845C18.1198 527.397 11.197 532.636 2.53036 546.864L-8.74719 539.995C1.18741 523.685 9.60033 517.285 17.5855 511.242L17.6819 511.169C25.0194 505.617 31.9422 500.379 40.6088 486.15C49.2755 471.922 50.7541 463.368 52.3213 454.301L52.3419 454.182C54.0477 444.314 55.8749 433.903 65.8095 417.593C75.7441 401.283 84.157 394.883 92.1422 388.84L92.2386 388.767C99.576 383.215 106.499 377.977 115.166 363.748C123.832 349.52 125.311 340.966 126.878 331.899L126.899 331.78C128.604 321.912 130.432 311.501 140.366 295.191C150.301 278.881 158.714 272.481 166.698 266.439L166.796 266.365C174.133 260.814 181.054 255.578 189.717 241.355C198.381 227.131 199.86 218.577 201.427 209.51L201.447 209.391C203.153 199.524 204.98 189.112 214.912 172.806C224.844 156.5 233.257 150.1 241.242 144.058L241.339 143.985C248.676 138.433 255.599 133.195 264.263 118.971C272.926 104.748 274.406 96.1932 275.973 87.1253L275.994 87.0046C277.701 77.1362 279.529 66.7227 289.464 50.4129C299.398 34.103 307.811 27.703 315.796 21.6605L315.893 21.5876C323.23 16.0354 330.153 10.797 338.82 -3.43132C347.486 -17.6595 348.965 -26.2141 350.532 -35.281L350.553 -35.4001C352.259 -45.2675 354.086 -55.679 364.02 -71.989C373.955 -88.2989 382.368 -94.6989 390.353 -100.741L390.45 -100.814C397.787 -106.367 404.71 -111.605 413.376 -125.833C422.043 -140.061 423.522 -148.616 425.089 -157.683L425.11 -157.802C426.815 -167.669 428.642 -178.081 438.577 -194.391C448.512 -210.701 456.925 -217.101 464.91 -223.143L465.006 -223.216C472.344 -228.768 479.266 -234.007 487.933 -248.235C496.6 -262.463 498.078 -271.018 499.646 -280.085L499.666 -280.204C501.372 -290.071 503.199 -300.483 513.134 -316.793C523.068 -333.103 531.481 -339.503 539.466 -345.545L539.563 -345.618C546.9 -351.17 553.823 -356.409 562.49 -370.637C571.156 -384.864 572.635 -393.419 574.203 -402.486L574.224 -402.607C575.93 -412.476 577.759 -422.889 587.696 -439.203C597.633 -455.517 606.046 -461.917 614.031 -467.96L614.127 -468.033C621.465 -473.585 628.388 -478.824 637.057 -493.056L648.334 -486.187C638.397 -469.873 629.985 -463.473 621.999 -457.43L621.903 -457.357C614.565 -451.805 607.642 -446.566 598.973 -432.334C590.303 -418.1 588.824 -409.543 587.256 -400.475L587.235 -400.357C585.529 -390.489 583.702 -380.078 573.767 -363.768C563.833 -347.458 555.42 -341.058 547.435 -335.015L547.338 -334.942C540.001 -329.39 533.078 -324.152 524.411 -309.923C515.745 -295.695 514.266 -287.141 512.699 -278.074L512.678 -277.955C510.972 -268.087 509.145 -257.676 499.211 -241.366C489.276 -225.056 480.863 -218.656 472.878 -212.613L472.781 -212.54C465.444 -206.988 458.521 -201.75 449.855 -187.522C441.188 -173.293 439.709 -164.739 438.142 -155.672L438.121 -155.553C436.416 -145.685 434.589 -135.274 424.654 -118.964C414.719 -102.654 406.306 -96.254 398.321 -90.2115L398.225 -90.1385C390.887 -84.5863 383.965 -79.3479 375.298 -65.1196C366.631 -50.8914 365.153 -42.3367 363.585 -33.2699L363.565 -33.1508C361.859 -23.2834 360.032 -12.8719 350.097 3.43799C340.163 19.7479 331.75 26.1479 323.765 32.1904L323.668 32.2634C316.331 37.8155 309.408 43.0539 300.741 57.2822C292.074 71.5117 290.594 80.0687 289.026 89.1374L289.006 89.2546C287.3 99.1225 285.473 109.534 275.541 125.84C265.609 142.146 257.196 148.546 249.211 154.588L249.114 154.661C241.777 160.213 234.854 165.452 226.19 179.676C217.526 193.899 216.047 202.454 214.48 211.521L214.459 211.64C212.754 221.507 210.927 231.919 200.994 248.225C191.062 264.53 182.65 270.928 174.666 276.97L174.571 277.041C167.234 282.593 160.311 287.831 151.644 302.06C142.977 316.288 141.498 324.843 139.931 333.91L139.911 334.029C138.205 343.896 136.378 354.308 126.443 370.618C116.508 386.928 108.096 393.328 100.11 399.37L100.014 399.443C92.6765 404.995 85.7536 410.234 77.087 424.462C68.4204 438.69 66.9417 447.245 65.3745 456.312L65.3539 456.431C63.6482 466.298 61.821 476.71 51.8864 493.02C41.9518 509.33 33.5389 515.73 25.5537 521.772L25.4573 521.845Z" fill="url(#paint11_linear_2578_29783)" fill-opacity="0.5"/>
<path fill-rule="evenodd" clip-rule="evenodd" d="M59.9649 542.865C52.6275 548.417 45.7047 553.655 37.038 567.883L25.7605 561.014C35.6951 544.704 44.108 538.304 52.0932 532.262L52.1896 532.189C59.527 526.637 66.4499 521.398 75.1165 507.17C83.7831 492.942 85.2618 484.387 86.829 475.32L86.8496 475.201C88.5554 465.334 90.3826 454.922 100.317 438.612C110.252 422.302 118.665 415.902 126.65 409.86L126.746 409.787C134.084 404.235 141.007 398.996 149.673 384.768C158.34 370.54 159.818 361.985 161.386 352.918L161.406 352.799C163.112 342.932 164.939 332.52 174.874 316.21C184.808 299.9 193.221 293.5 201.206 287.459L201.304 287.385C208.64 281.834 215.561 276.597 224.225 262.375C232.889 248.151 234.367 239.596 235.935 230.529L235.955 230.41C237.661 220.543 239.488 210.131 249.42 193.826C259.352 177.52 267.765 171.12 275.75 165.078L275.846 165.005C283.184 159.452 290.107 154.214 298.771 139.99C307.434 125.767 308.913 117.213 310.481 108.145L310.502 108.024C312.208 98.1557 314.037 87.7422 323.971 71.4325C333.906 55.1225 342.319 48.7225 350.304 42.68L350.401 42.6071C357.738 37.0549 364.661 31.8165 373.327 17.5882C381.994 3.36 383.473 -5.19461 385.04 -14.2614L385.061 -14.3806C386.766 -24.248 388.593 -34.6595 398.528 -50.9694C408.463 -67.2794 416.876 -73.6794 424.861 -79.7219L424.957 -79.7949C432.295 -85.347 439.217 -90.5855 447.884 -104.814C456.551 -119.042 458.029 -127.597 459.597 -136.664L459.617 -136.783C461.323 -146.65 463.15 -157.061 473.085 -173.371C483.019 -189.681 491.432 -196.081 499.417 -202.124L499.514 -202.197C506.851 -207.749 513.774 -212.987 522.441 -227.216C531.107 -241.444 532.586 -249.998 534.153 -259.065L534.174 -259.184C535.88 -269.052 537.707 -279.463 547.641 -295.773C557.576 -312.083 565.989 -318.483 573.974 -324.526L574.071 -324.599C581.408 -330.151 588.331 -335.389 596.997 -349.617C605.664 -363.845 607.143 -372.399 608.71 -381.467L608.731 -381.588C610.438 -391.456 612.266 -401.87 622.203 -418.184C632.14 -434.498 640.553 -440.898 648.539 -446.941L648.635 -447.014C655.972 -452.565 662.895 -457.804 671.565 -472.037L682.842 -465.167C672.905 -448.853 664.492 -442.453 656.507 -436.411L656.41 -436.337C649.073 -430.785 642.15 -425.547 633.481 -411.314C624.811 -397.081 623.331 -388.523 621.763 -379.455L621.743 -379.338C620.037 -369.47 618.21 -359.058 608.275 -342.748C598.34 -326.438 589.927 -320.038 581.942 -313.996L581.846 -313.923C574.508 -308.371 567.586 -303.132 558.919 -288.904C550.252 -274.676 548.774 -266.121 547.206 -257.054L547.186 -256.935C545.48 -247.068 543.653 -236.656 533.718 -220.346C523.784 -204.036 515.371 -197.636 507.386 -191.594L507.289 -191.521C499.952 -185.969 493.029 -180.73 484.362 -166.502C475.696 -152.274 474.217 -143.719 472.65 -134.652L472.629 -134.533C470.923 -124.666 469.096 -114.254 459.162 -97.9444C449.227 -81.6345 440.814 -75.2345 432.829 -69.192L432.732 -69.119C425.395 -63.5668 418.472 -58.3284 409.806 -44.1001C401.139 -29.8718 399.66 -21.3172 398.093 -12.2503L398.073 -12.1313C396.367 -2.26389 394.54 8.14761 384.605 24.4575C374.67 40.7675 366.257 47.1675 358.272 53.21L358.176 53.2829C350.838 58.835 343.916 64.0735 335.249 78.3018C326.582 92.5312 325.102 101.088 323.534 110.157L323.514 110.274C321.808 120.142 319.98 130.554 310.048 146.859C300.116 163.165 291.703 169.565 283.718 175.608L283.622 175.68C276.284 181.233 269.362 186.471 260.698 200.695C252.034 214.919 250.555 223.473 248.988 232.541L248.967 232.66C247.261 242.527 245.434 252.938 235.502 269.244C225.57 285.55 217.158 291.948 209.174 297.989L209.079 298.061C201.742 303.612 194.819 308.851 186.151 323.08C177.485 337.308 176.006 345.863 174.439 354.929L174.418 355.049C172.713 364.916 170.885 375.327 160.951 391.637C151.016 407.947 142.603 414.347 134.618 420.39L134.522 420.463C127.184 426.015 120.261 431.253 111.595 445.482C102.928 459.71 101.449 468.264 99.8822 477.331L99.8616 477.45C98.1559 487.318 96.3287 497.729 86.3941 514.039C76.4595 530.349 68.0466 536.749 60.0613 542.792L59.9649 542.865Z" fill="url(#paint12_linear_2578_29783)" fill-opacity="0.5"/>
<path fill-rule="evenodd" clip-rule="evenodd" d="M94.4726 563.883C87.1352 569.435 80.2124 574.674 71.5457 588.902L60.2682 582.033C70.2028 565.723 78.6157 559.323 86.6009 553.28L86.6973 553.207C94.0347 547.655 100.958 542.417 109.624 528.188C118.291 513.96 119.77 505.406 121.337 496.339L121.357 496.22C123.063 486.352 124.89 475.941 134.825 459.631C144.759 443.321 153.172 436.921 161.158 430.878L161.254 430.805C168.591 425.253 175.514 420.015 184.181 405.787C192.848 391.558 194.326 383.004 195.893 373.937L195.914 373.818C197.62 363.95 199.447 353.539 209.382 337.229C219.316 320.919 227.729 314.519 235.714 308.477L235.812 308.403C243.148 302.853 250.069 297.616 258.732 283.393C267.396 269.169 268.875 260.615 270.442 251.548L270.463 251.429C272.168 241.562 273.996 231.15 283.928 214.844C293.86 198.539 302.273 192.139 310.258 186.096L310.354 186.023C317.692 180.471 324.614 175.233 333.278 161.009C341.942 146.786 343.421 138.231 344.989 129.163L345.01 129.043C346.716 119.174 348.545 108.761 358.479 92.451C368.414 76.1411 376.827 69.7411 384.812 63.6986L384.908 63.6256C392.246 58.0735 399.168 52.835 407.835 38.6068C416.502 24.3786 417.98 15.8239 419.548 6.75713L419.568 6.63795C421.274 -3.22946 423.101 -13.641 433.036 -29.9509C442.97 -46.2608 451.383 -52.6608 459.368 -58.7033L459.465 -58.7763C466.802 -64.3284 473.725 -69.5669 482.392 -83.7952C491.058 -98.0234 492.537 -106.578 494.104 -115.645L494.125 -115.764C495.831 -125.631 497.658 -136.043 507.592 -152.353C517.527 -168.663 525.94 -175.063 533.925 -181.105L534.021 -181.178C541.359 -186.73 548.282 -191.969 556.948 -206.197C565.615 -220.425 567.094 -228.98 568.661 -238.047L568.682 -238.166C570.387 -248.033 572.214 -258.445 582.149 -274.755C592.084 -291.065 600.497 -297.465 608.482 -303.507L608.578 -303.58C615.916 -309.132 622.838 -314.371 631.505 -328.599C640.171 -342.826 641.65 -351.381 643.218 -360.448L643.239 -360.569C644.945 -370.438 646.774 -380.851 656.711 -397.165C666.648 -413.479 675.061 -419.879 683.046 -425.922L683.143 -425.995C690.48 -431.547 697.403 -436.785 706.072 -451.018L717.35 -444.149C707.413 -427.835 699 -421.435 691.014 -415.392L690.918 -415.319C683.581 -409.767 676.658 -404.528 667.989 -390.296C659.319 -376.062 657.839 -367.505 656.271 -358.437L656.251 -358.319C654.544 -348.451 652.717 -338.04 642.783 -321.73C632.848 -305.42 624.435 -299.02 616.45 -292.977L616.353 -292.904C609.016 -287.352 602.093 -282.114 593.427 -267.885C584.76 -253.657 583.281 -245.103 581.714 -236.036L581.694 -235.917C579.988 -226.049 578.161 -215.638 568.226 -199.328C558.291 -183.018 549.878 -176.618 541.893 -170.575L541.797 -170.502C534.459 -164.95 527.537 -159.712 518.87 -145.483C510.203 -131.255 508.725 -122.701 507.157 -113.634L507.137 -113.515C505.431 -103.647 503.604 -93.2358 493.669 -76.9259C483.735 -60.6159 475.322 -54.2159 467.337 -48.1734L467.24 -48.1004C459.903 -42.5483 452.98 -37.3098 444.313 -23.0816C435.647 -8.85327 434.168 -0.298643 432.601 8.76822L432.58 8.88725C430.874 18.7547 429.047 29.1662 419.113 45.4761C409.178 61.786 400.765 68.186 392.78 74.2285L392.684 74.3014C385.346 79.8536 378.423 85.092 369.757 99.3203C361.089 113.55 359.61 122.107 358.042 131.175L358.022 131.293C356.315 141.161 354.488 151.572 344.556 167.878C334.624 184.184 326.211 190.584 318.226 196.626L318.13 196.699C310.792 202.251 303.869 207.49 295.205 221.714C286.541 235.938 285.063 244.492 283.495 253.559L283.475 253.678C281.769 263.545 279.942 273.957 270.01 290.263C260.078 306.569 251.666 312.966 243.681 319.008L243.586 319.08C236.249 324.631 229.326 329.869 220.659 344.098C211.992 358.326 210.514 366.881 208.947 375.948L208.926 376.067C207.22 385.934 205.393 396.346 195.458 412.656C185.524 428.966 177.111 435.366 169.126 441.408L169.029 441.481C161.692 447.033 154.769 452.272 146.102 466.5C137.436 480.728 135.957 489.283 134.39 498.35L134.369 498.469C132.664 508.336 130.836 518.748 120.902 535.058C110.967 551.368 102.554 557.768 94.569 563.81L94.4726 563.883Z" fill="url(#paint13_linear_2578_29783)" fill-opacity="0.5"/>
<path fill-rule="evenodd" clip-rule="evenodd" d="M128.98 584.903C121.643 590.455 114.72 595.694 106.053 609.922L94.7759 603.053C104.71 586.743 113.123 580.343 121.109 574.3L121.205 574.227C128.542 568.675 135.465 563.437 144.132 549.208C152.799 534.98 154.277 526.426 155.844 517.359L155.865 517.24C157.571 507.372 159.398 496.961 169.333 480.651C179.267 464.341 187.68 457.941 195.665 451.898L195.762 451.825C203.099 446.273 210.022 441.035 218.689 426.807C227.355 412.578 228.834 404.024 230.401 394.957L230.422 394.838C232.127 384.97 233.955 374.559 243.889 358.249C253.824 341.939 262.237 335.539 270.222 329.497L270.319 329.423C277.656 323.873 284.577 318.636 293.24 304.413C301.904 290.189 303.383 281.635 304.95 272.568L304.97 272.449C306.676 262.582 308.503 252.17 318.435 235.864C328.367 219.559 336.78 213.159 344.765 207.116L344.862 207.043C352.199 201.491 359.122 196.253 367.786 182.029C376.45 167.806 377.929 159.251 379.496 150.183L379.517 150.063C381.224 140.194 383.052 129.781 392.987 113.471C402.921 97.1611 411.334 90.7611 419.32 84.7186L419.416 84.6457C426.753 79.0935 433.676 73.8551 442.343 59.6268C451.009 45.3986 452.488 36.844 454.055 27.7771L454.076 27.658C455.782 17.7906 457.609 7.37906 467.543 -8.93085C477.478 -25.2408 485.891 -31.6408 493.876 -37.6833L493.973 -37.7563C501.31 -43.3084 508.233 -48.5469 516.899 -62.7751C525.566 -77.0034 527.045 -85.558 528.612 -94.6249L528.633 -94.744C530.338 -104.611 532.165 -115.023 542.1 -131.333C552.035 -147.643 560.448 -154.043 568.433 -160.085L568.529 -160.158C575.867 -165.71 582.79 -170.949 591.456 -185.177C600.123 -199.405 601.601 -207.96 603.169 -217.027L603.189 -217.146C604.895 -227.013 606.722 -237.425 616.657 -253.735C626.591 -270.045 635.004 -276.445 642.99 -282.487L643.086 -282.56C650.423 -288.112 657.346 -293.351 666.013 -307.579C674.679 -321.806 676.158 -330.361 677.726 -339.428L677.747 -339.549C679.453 -349.418 681.282 -359.831 691.219 -376.145C701.156 -392.459 709.569 -398.859 717.554 -404.902L717.651 -404.975C724.988 -410.527 731.911 -415.765 740.58 -429.998L751.858 -423.129C741.92 -406.815 733.508 -400.415 725.522 -394.372L725.426 -394.299C718.088 -388.747 711.165 -383.508 702.496 -369.276C693.826 -355.042 692.347 -346.485 690.779 -337.417L690.758 -337.299C689.052 -327.431 687.225 -317.02 677.29 -300.71C667.356 -284.4 658.943 -278 650.958 -271.957L650.861 -271.884C643.524 -266.332 636.601 -261.094 627.934 -246.865C619.268 -232.637 617.789 -224.082 616.222 -215.016L616.201 -214.897C614.495 -205.029 612.668 -194.618 602.734 -178.308C592.799 -161.998 584.386 -155.598 576.401 -149.555L576.304 -149.482C568.967 -143.93 562.044 -138.692 553.378 -124.463C544.711 -110.235 543.232 -101.681 541.665 -92.6138L541.645 -92.4947C539.939 -82.6272 538.112 -72.2157 528.177 -55.9058C518.242 -39.5959 509.83 -33.1959 501.844 -27.1534L501.748 -27.0804C494.41 -21.5282 487.488 -16.2898 478.821 -2.06154C470.154 12.1667 468.676 20.7214 467.108 29.7882L467.088 29.9073C465.382 39.7747 463.555 50.1862 453.62 66.4961C443.686 82.806 435.273 89.206 427.288 95.2485L427.191 95.3215C419.854 100.874 412.931 106.112 404.264 120.34C395.597 134.57 394.117 143.127 392.549 152.195L392.529 152.313C390.823 162.181 388.996 172.592 379.064 188.898C369.132 205.204 360.719 211.604 352.734 217.646L352.637 217.719C345.3 223.271 338.377 228.51 329.713 242.734C321.049 256.958 319.57 265.512 318.003 274.579L317.982 274.698C316.277 284.565 314.45 294.977 304.518 311.283C294.585 327.589 286.174 333.986 278.189 340.028L278.094 340.1C270.757 345.651 263.834 350.889 255.167 365.118C246.5 379.346 245.021 387.901 243.454 396.968L243.434 397.087C241.728 406.954 239.901 417.366 229.966 433.676C220.032 449.986 211.619 456.386 203.633 462.428L203.537 462.501C196.2 468.053 189.277 473.292 180.61 487.52C171.943 501.748 170.465 510.303 168.898 519.37L168.877 519.489C167.171 529.356 165.344 539.768 155.409 556.078C145.475 572.388 137.062 578.788 129.077 584.83L128.98 584.903Z" fill="url(#paint14_linear_2578_29783)"/>
<path fill-rule="evenodd" clip-rule="evenodd" d="M162.927 605.752C155.391 611.173 148.322 616.258 139.698 630.416L128.421 623.546C138.399 607.165 147.097 600.873 155.313 594.962L155.411 594.892C162.947 589.47 170.016 584.385 178.64 570.228C187.263 556.07 188.539 547.456 189.898 538.273L189.916 538.154C191.399 528.141 192.999 517.526 202.978 501.144C212.956 484.763 221.653 478.471 229.87 472.56L229.968 472.49C237.504 467.068 244.573 461.983 253.196 447.826C261.82 433.668 263.095 425.054 264.455 415.871L264.473 415.752C265.956 405.739 267.556 395.124 277.534 378.743C287.513 362.361 296.21 356.069 304.426 350.159L304.525 350.088C312.061 344.668 319.128 339.584 327.748 325.432C336.369 311.279 337.644 302.666 339.004 293.481L339.022 293.363C340.504 283.35 342.104 272.736 352.08 256.358C362.056 239.98 370.754 233.689 378.97 227.778L379.068 227.708C386.604 222.286 393.673 217.201 402.294 203.048C410.914 188.896 412.19 180.282 413.551 171.097L413.568 170.977C415.052 160.963 416.653 150.346 426.632 133.965C436.61 117.583 445.307 111.291 453.524 105.38L453.622 105.31C461.158 99.8885 468.227 94.8034 476.851 80.6459C485.474 66.4884 486.75 57.8746 488.109 48.6908L488.127 48.5718C489.61 38.559 491.21 27.9447 501.188 11.5628C511.167 -4.81906 519.864 -11.1105 528.081 -17.0216L528.179 -17.0919C535.715 -22.5135 542.784 -27.5985 551.407 -41.756C560.031 -55.9134 561.306 -64.5272 562.666 -73.7109L562.684 -73.8301C564.166 -83.8429 565.767 -94.4572 575.745 -110.839C585.724 -127.221 594.421 -133.512 602.638 -139.423L602.735 -139.494C610.272 -144.915 617.34 -150 625.964 -164.158C634.587 -178.315 635.863 -186.929 637.223 -196.113L637.24 -196.232C638.723 -206.245 640.323 -216.859 650.302 -233.241C660.28 -249.623 668.977 -255.914 677.194 -261.825L677.292 -261.895C684.828 -267.317 691.897 -272.402 700.52 -286.56C709.143 -300.716 710.419 -309.33 711.78 -318.514L711.798 -318.635C713.281 -328.649 714.883 -339.266 724.864 -355.652C734.845 -372.038 743.542 -378.329 751.759 -384.24L751.857 -384.311C759.393 -389.732 766.462 -394.817 775.088 -408.979L786.365 -402.11C776.384 -385.724 767.687 -379.432 759.47 -373.521L759.372 -373.451C751.836 -368.029 744.767 -362.944 736.141 -348.782C727.514 -334.619 726.238 -326.003 724.878 -316.818L724.86 -316.7C723.377 -306.687 721.776 -296.072 711.798 -279.69C701.82 -263.309 693.122 -257.017 684.906 -251.106L684.808 -251.036C677.271 -245.614 670.203 -240.529 661.579 -226.372C652.956 -212.214 651.68 -203.6 650.32 -194.417L650.303 -194.298C648.82 -184.285 647.22 -173.67 637.241 -157.289C627.263 -140.907 618.566 -134.615 610.349 -128.704L610.251 -128.634C602.715 -123.212 595.646 -118.127 587.023 -103.97C578.399 -89.8123 577.124 -81.1984 575.764 -72.0146L575.746 -71.8957C574.263 -61.8829 572.663 -51.2685 562.685 -34.8867C552.706 -18.5048 544.009 -12.2134 535.792 -6.3023L535.695 -6.23199C528.158 -0.810424 521.09 4.27464 512.466 18.4321C503.842 32.5896 502.567 41.2035 501.207 50.3872L501.19 50.5062C499.707 60.5191 498.106 71.1334 488.128 87.5152C478.15 103.897 469.452 110.189 461.236 116.1L461.138 116.17C453.602 121.591 446.533 126.676 437.909 140.834C429.285 154.993 428.009 163.609 426.648 172.795L426.631 172.912C425.147 182.925 423.547 193.539 413.571 209.917C403.596 226.295 394.898 232.586 386.682 238.497L386.584 238.567C379.047 243.989 371.979 249.074 363.358 263.227C354.737 277.38 353.462 285.994 352.102 295.178L352.084 295.297C350.601 305.31 349.001 315.924 339.025 332.302C329.049 348.68 320.353 354.969 312.137 360.879L312.041 360.948C304.505 366.369 297.436 371.454 288.812 385.612C280.188 399.769 278.913 408.383 277.553 417.567L277.535 417.686C276.053 427.699 274.452 438.313 264.474 454.695C254.495 471.077 245.798 477.368 237.581 483.279L237.484 483.35C229.947 488.771 222.879 493.856 214.255 508.014C205.632 522.171 204.356 530.785 202.996 539.969L202.979 540.088C201.496 550.101 199.896 560.715 189.917 577.097C179.939 593.479 171.241 599.77 163.025 605.681L162.927 605.752Z" fill="url(#paint15_linear_2578_29783)"/>
</g>
<path d="M92.8405 328.089L312.269 244.853L344.076 328.703C348.171 339.496 343.038 351.452 332.613 355.406L150.937 424.322C140.512 428.276 128.742 422.733 124.647 411.94L92.8405 328.089Z" fill="url(#paint16_linear_2578_29783)"/>
<path d="M204.543 72.7328C204.276 72.8909 203.972 72.9723 203.662 72.9682C203.352 72.964 203.05 72.8745 202.788 72.7094C202.526 72.5443 202.314 72.31 202.177 72.0324C202.039 71.7549 201.981 71.4447 202.009 71.1362C202.155 69.4632 201.783 67.7857 200.943 66.3313C200.103 64.8769 198.837 63.716 197.315 63.0061C196.925 62.8096 196.627 62.4691 196.483 62.0567C196.34 61.6442 196.362 61.1922 196.546 60.796C196.729 60.3999 197.06 60.0907 197.468 59.9338C197.875 59.7769 198.328 59.7846 198.73 59.9552C200.883 60.9528 202.675 62.5912 203.862 64.6463C205.048 66.7014 205.571 69.0729 205.358 71.4364C205.335 71.7016 205.248 71.9574 205.107 72.1828C204.965 72.4081 204.772 72.5967 204.543 72.7328Z" fill="white"/>
<path d="M211.87 72.368C211.614 72.5105 211.325 72.5835 211.032 72.58C210.739 72.5765 210.452 72.4965 210.2 72.3479C209.947 72.1994 209.738 71.9874 209.592 71.733C209.447 71.4786 209.37 71.1906 209.37 70.8975C209.454 68.0288 208.738 65.1933 207.303 62.7078C205.868 60.2224 203.77 58.1848 201.244 56.8228C201.049 56.7187 200.876 56.5772 200.735 56.4063C200.595 56.2354 200.489 56.0385 200.425 55.8268C200.36 55.6151 200.338 55.3927 200.359 55.1725C200.381 54.9522 200.445 54.7383 200.549 54.543C200.654 54.3477 200.795 54.1748 200.966 54.0342C201.137 53.8936 201.334 53.788 201.546 53.7235C201.757 53.659 201.98 53.6368 202.2 53.6583C202.42 53.6797 202.634 53.7443 202.829 53.8484C205.908 55.5072 208.464 57.9896 210.213 61.0181C211.961 64.0466 212.833 67.5018 212.73 70.9973C212.714 71.2796 212.626 71.5532 212.476 71.7928C212.326 72.0324 212.117 72.2302 211.87 72.368V72.368Z" fill="white"/>
<path d="M219.492 72.0079C219.234 72.1534 218.942 72.2281 218.646 72.2246C218.424 72.2229 218.206 72.1776 218.002 72.0914C217.799 72.0052 217.614 71.8796 217.459 71.722C217.304 71.5643 217.181 71.3776 217.098 71.1726C217.016 70.9676 216.974 70.7482 216.976 70.5271C216.997 66.4326 215.93 62.406 213.883 58.86C211.835 55.314 208.882 52.3761 205.325 50.3476C204.976 50.1085 204.729 49.7464 204.635 49.3335C204.541 48.9207 204.606 48.4875 204.817 48.1204C205.028 47.7533 205.37 47.4792 205.774 47.353C206.178 47.2268 206.615 47.2577 206.997 47.4395C211.076 49.7652 214.462 53.1336 216.809 57.1993C219.157 61.2651 220.381 65.882 220.356 70.5767C220.349 70.8699 220.266 71.1562 220.114 71.4072C219.963 71.6582 219.748 71.8653 219.492 72.0079V72.0079Z" fill="white"/>
<g clip-path="url(#clip0_2578_29783)">
<path d="M136.417 393.546C135.857 392.203 136.265 386.538 142.608 375.566C143.427 371.171 144.135 366.368 144.584 361.862C145.622 352.007 145.115 348.625 144.623 348.2C143.49 347.163 141.649 349.258 140.893 350.198C137.217 354.876 133.777 364.824 137.173 370.499C137.343 370.791 137.243 371.3 136.96 371.609C136.677 371.918 136.306 371.924 136.147 371.655C132.355 365.336 136.099 354.407 140.141 349.294C142.257 346.576 144.253 345.701 145.501 346.856C147.263 348.482 146.169 361.387 144.249 372.818C145.913 370.117 147.905 367.142 150.284 363.895C150.556 363.562 150.905 363.452 151.134 363.687C151.362 363.922 151.32 364.432 151.06 364.788C147.97 369.01 145.538 372.744 143.658 375.953C143.114 379.007 142.492 381.897 141.888 384.289C140.377 390.055 138.973 393.235 137.466 393.99C137.116 394.159 136.698 394.13 136.417 393.546ZM140.73 384.214C141.135 382.666 141.519 381.013 141.87 379.232C137.574 387.404 137.269 391.61 137.489 392.425C137.982 392.014 139.131 390.396 140.718 384.191L140.73 384.214Z" fill="#838383"/>
<path d="M152.745 368.467C152.349 367.765 152.239 366.581 152.397 365.295C152.556 363.952 153.017 362.579 153.637 361.475C153.851 361.083 154.271 360.939 154.5 361.116C154.764 361.306 154.769 361.735 154.531 362.137C153.674 363.644 153.172 366.246 153.794 367.357C153.985 367.754 154.297 367.805 154.753 367.557C155.197 367.343 155.602 366.63 155.907 365.591C156.213 364.551 156.335 363.312 156.209 362.394C156.159 361.871 156.026 361.475 155.878 361.287C155.74 361.181 155.625 361.121 155.427 361.188L155.38 361.21C155.053 361.368 154.766 361.19 154.725 360.806C154.684 360.423 154.9 359.974 155.25 359.805L155.414 359.726C156.207 359.401 156.899 359.702 157.568 359.955C158.825 360.414 159.897 360.847 161.544 358.529C161.804 358.173 162.2 358.04 162.429 358.275C162.634 358.522 162.615 359.02 162.367 359.341C161.348 360.811 160.339 361.585 159.28 361.836C158.593 361.965 157.993 361.794 157.45 361.623L157.471 361.786C157.762 364.064 156.952 367.937 155.011 368.987L154.871 369.055C153.983 369.483 153.22 369.274 152.78 368.479L152.745 368.467Z" fill="#838383"/>
<path d="M171.822 367.077C171.566 367.143 171.255 367.034 171.109 366.673C170.248 364.526 169.686 361.687 169.288 359.605C169.126 358.791 168.943 357.814 168.778 357.232C168.468 357.784 167.963 359.006 167.217 361.64C166.63 363.649 166.184 365.591 166.086 365.984C166.061 366.111 166.024 366.215 165.965 366.33C165.857 366.526 165.704 366.686 165.541 366.765C165.354 366.855 165.134 366.817 165.008 366.676C164.905 366.581 164.885 366.419 164.828 366.302C164.591 364.315 164.416 361.981 164.385 359.406C164.291 359.451 164.21 359.461 164.129 359.414C163.84 359.351 163.696 358.932 163.841 358.516C164.034 358.02 164.192 357.512 164.374 356.993C164.338 354.65 164.41 352.169 164.55 349.712C164.732 346.803 165.015 344.105 165.36 341.953C165.744 339.523 166.22 337.883 166.779 336.951C167.219 336.25 167.628 336.024 167.884 335.959C168.303 335.872 168.626 336.004 168.875 336.402C169.192 336.94 169.292 337.986 169.223 339.574C169.156 340.988 168.932 342.794 168.589 344.83C167.907 348.613 166.858 352.889 165.617 356.826C165.611 358.844 165.676 360.712 165.79 362.442L166.156 361.172C166.571 359.763 166.948 358.574 167.298 357.686C167.851 356.325 168.338 355.602 168.852 355.354C169.038 355.264 169.434 355.189 169.682 355.703C169.76 355.866 169.873 356.1 169.949 356.437C170.102 357.054 170.264 357.868 170.459 358.811C170.871 360.8 171.376 363.522 172.193 365.517C172.424 365.578 172.583 365.847 172.531 366.218C172.468 366.565 172.266 366.864 171.986 366.999C171.939 367.021 171.869 367.055 171.811 367.054L171.822 367.077ZM167.471 344.361C167.802 342.36 168.001 340.623 168.031 339.371C168.039 338.014 167.871 337.605 167.826 337.512C167.685 337.637 167.293 338.258 166.783 340.663C166.394 342.606 166.112 345.246 165.859 348.246C165.757 349.706 165.677 351.155 165.644 352.639C166.428 349.786 167.05 346.953 167.447 344.373L167.471 344.361Z" fill="#838383"/>
<path d="M179.996 357.757C179.434 357.366 179.373 355.985 179.315 353.595C179.312 353.05 179.287 352.342 179.249 351.785L178.962 352.384C178.602 353.19 178.229 354.09 177.833 355C177.497 355.795 177.185 356.521 176.922 357.051C176.621 357.743 176.371 358.238 175.997 358.418C175.95 358.44 175.88 358.474 175.845 358.462C175.589 358.528 175.359 358.408 175.293 358.152C175.271 358.106 175.248 358.059 175.237 358.035C175.092 356.839 175.118 355.099 175.36 352.795C175.524 351.162 175.728 349.854 175.74 349.819C175.816 349.38 176.147 348.99 176.484 348.972C176.797 348.965 177.001 349.27 176.936 349.733C176.948 349.756 176.426 352.915 176.376 355.501C176.52 355.201 176.629 354.89 176.749 354.601C178.286 351.04 178.824 349.946 179.408 349.665C179.641 349.552 179.85 349.567 179.999 349.697C180.424 349.981 180.469 350.852 180.528 353.184C180.54 353.926 180.551 354.727 180.623 355.354C180.663 355.796 180.694 356.04 180.726 356.226C181.056 355.894 181.599 355.229 182.326 353.929C183.04 352.722 184.115 350.592 185.171 347.406C185.293 347.002 185.691 346.695 185.992 346.781C186.292 346.866 186.425 347.262 186.28 347.678C185.152 351.013 184.029 353.282 183.279 354.593C181.993 356.824 181.124 357.588 180.633 357.825C180.4 357.937 180.18 357.899 179.984 357.792L179.996 357.757Z" fill="#838383"/>
<path d="M192.712 367.894C192.531 367.636 192.607 367.139 192.902 366.795C194.766 364.688 196.741 361.319 198.52 357.065C200.201 353.146 201.788 348.554 203.03 343.782C204.235 339.114 205.09 334.614 205.484 330.711C205.914 326.705 205.808 323.618 205.174 321.822C204.908 320.972 204.533 320.433 204.038 320.182C203.566 319.92 202.986 319.969 202.285 320.307C199.481 321.657 195.556 326.715 192.751 343.178C191.026 353.22 190.583 362.817 190.547 362.921C190.569 362.968 190.533 363.072 190.532 363.13C190.349 363.765 190.018 364.213 189.657 364.3C189.016 364.465 188.867 363.616 188.79 363.278C188.64 362.487 188.188 358.502 187.995 352.665C187.824 347.71 187.773 340.194 188.637 332.667C188.678 332.274 188.974 331.872 189.322 331.819C189.648 331.778 189.875 332.071 189.835 332.465C189.007 339.887 189.037 347.299 189.22 352.162C189.341 354.982 189.48 357.362 189.628 359.161C189.915 355.396 190.49 349.42 191.544 343.242C192.595 337.237 193.863 332.222 195.324 328.323C197.219 323.294 199.515 320.115 202.132 318.855C203.137 318.371 204.007 318.326 204.732 318.696C205.423 319.054 205.934 319.815 206.301 320.876C206.99 322.904 207.092 326.223 206.693 330.474C206.263 334.481 205.396 339.073 204.143 343.821C202.876 348.72 201.287 353.429 199.546 357.463C197.589 362.004 195.59 365.443 193.526 367.79C193.444 367.858 193.338 367.938 193.245 367.983C193.011 368.096 192.814 368.046 192.69 367.847L192.712 367.894Z" fill="#838383"/>
<path d="M210.285 340.746C209.89 340.045 209.78 338.86 209.938 337.575C210.097 336.232 210.558 334.858 211.177 333.754C211.391 333.363 211.811 333.218 212.04 333.395C212.27 333.573 212.31 334.014 212.095 334.405C211.238 335.912 210.736 338.514 211.357 339.625C211.549 340.023 211.861 340.074 212.317 339.825C212.761 339.611 213.166 338.898 213.471 337.859C213.776 336.819 213.899 335.58 213.773 334.662C213.723 334.139 213.59 333.743 213.442 333.555C213.304 333.449 213.189 333.389 212.991 333.456L212.944 333.478C212.617 333.636 212.33 333.458 212.289 333.074C212.248 332.691 212.487 332.23 212.814 332.073L212.977 331.994C213.771 331.669 214.462 331.97 215.131 332.223C216.389 332.682 217.461 333.116 219.107 330.797C219.368 330.441 219.764 330.308 219.993 330.543C220.198 330.79 220.179 331.288 219.931 331.609C218.911 333.079 217.903 333.853 216.843 334.104C216.157 334.233 215.533 334.073 215.014 333.891L215.035 334.054C215.326 336.332 214.515 340.205 212.574 341.255L212.434 341.323C211.547 341.751 210.784 341.542 210.343 340.747L210.285 340.746Z" fill="#838383"/>
<path d="M221.421 334.577C221.142 333.819 221.172 332.566 221.495 331.144C221.804 329.815 222.367 328.594 222.982 327.78C223.716 326.793 224.521 326.492 225.211 326.85C225.603 327.064 225.804 327.543 225.772 328.134C225.722 329.165 225.018 330.512 224.425 331.431C223.879 332.27 223.24 333.153 222.662 333.806C222.855 334.087 223.216 334 223.496 333.865C224.664 333.302 225.842 332.101 227.004 330.39C228.178 328.587 228.888 326.834 229.13 326.142C229.299 325.715 229.651 325.43 229.963 325.539C230.252 325.601 230.397 326.021 230.228 326.448C229.961 327.209 229.144 329.158 227.862 331.157C226.545 333.202 225.109 334.584 223.661 335.282C222.633 335.777 221.801 335.545 221.456 334.589L221.421 334.577ZM224.538 328.44C224.538 328.44 224.517 328.336 224.471 328.3C224.425 328.265 224.287 328.216 224.123 328.295C224.006 328.351 223.865 328.477 223.711 328.695C223.262 329.257 222.854 330.202 222.607 331.242C222.52 331.6 222.481 331.936 222.43 332.248C223.505 330.896 224.482 329.159 224.492 328.463L224.538 328.44Z" fill="#838383"/>
</g>
<path fill-rule="evenodd" clip-rule="evenodd" d="M300.106 326.137L285.785 288.384C283.083 281.26 275.117 277.676 267.994 280.378C260.87 283.081 257.286 291.046 259.988 298.17L274.308 335.923C277.011 343.046 284.976 346.631 292.1 343.928C299.224 341.226 302.808 333.261 300.106 326.137ZM267.516 279.12C259.698 282.086 255.763 290.829 258.729 298.647L273.05 336.4C276.016 344.219 284.759 348.153 292.578 345.187C300.396 342.221 304.33 333.478 301.364 325.659L287.044 287.907C284.078 280.088 275.335 276.154 267.516 279.12Z" fill="#959FD8"/>
<path fill-rule="evenodd" clip-rule="evenodd" d="M314.578 320.647L300.257 282.895C297.555 275.771 289.589 272.187 282.466 274.889C275.342 277.591 271.757 285.557 274.46 292.681L288.78 330.433C291.483 337.557 299.448 341.141 306.572 338.439C313.696 335.737 317.28 327.771 314.578 320.647ZM281.988 273.631C274.169 276.597 270.235 285.339 273.201 293.158L287.522 330.911C290.488 338.729 299.231 342.663 307.049 339.698C314.868 336.732 318.802 327.989 315.836 320.17L301.516 282.418C298.55 274.599 289.807 270.665 281.988 273.631Z" fill="#959FD8"/>
<g opacity="0.7" filter="url(#filter2_bi_2578_29783)">
<path d="M172.114 47.747C175.968 46.231 180.32 48.1256 181.836 51.9788L195.562 86.8628C197.078 90.716 195.183 95.0687 191.33 96.5847L170.399 104.82C166.546 106.336 162.194 104.441 160.678 100.588L146.952 65.7041C145.436 61.8509 147.331 57.4982 151.184 55.9822L172.114 47.747Z" fill="url(#paint17_linear_2578_29783)"/>
<path d="M181.401 52.1502L195.126 87.0342C196.547 90.6468 194.771 94.7277 191.159 96.1491L170.228 104.384C166.615 105.806 162.535 104.029 161.113 100.417L147.388 65.5327C145.966 61.9201 147.743 57.8392 151.355 56.4178L172.286 48.1826C175.898 46.7612 179.979 48.5375 181.401 52.1502Z" stroke="black" stroke-opacity="0.7" stroke-width="0.936209"/>
</g>
<g opacity="0.4">
<path d="M182.852 57.1186L183.195 57.9907L150.055 71.0297L149.712 70.1576L160.177 66.04L155.888 55.1387L156.76 54.7956L161.049 65.6969L171.514 61.5793L167.225 50.678L168.097 50.3349L172.386 61.2361L182.852 57.1186Z" fill="black"/>
<path d="M170.828 90.5518L175.289 101.889L174.417 102.232L169.956 90.8949L159.491 95.0125L159.148 94.1404L176.59 87.2777C179.48 86.1407 182.744 87.5617 183.881 90.4516L186.626 97.4284L185.754 97.7715L183.009 90.7947C182.062 88.3864 179.341 87.2023 176.933 88.1498L170.828 90.5518Z" fill="black"/>
<path d="M192.631 81.9735L192.288 81.1014L185.311 83.8464L185.654 84.7185L192.631 81.9735Z" fill="black"/>
<path fill-rule="evenodd" clip-rule="evenodd" d="M173.659 82.3883C170.287 83.7148 166.479 82.057 165.152 78.6855C163.826 75.3139 165.484 71.5054 168.855 70.1788C172.227 68.8523 176.035 70.5101 177.362 73.8816C178.688 77.2532 177.03 81.0617 173.659 82.3883ZM173.316 81.5162C170.426 82.6532 167.161 81.2322 166.024 78.3423C164.887 75.4525 166.308 72.188 169.198 71.0509C172.088 69.9139 175.353 71.3349 176.49 74.2248C177.627 77.1146 176.206 80.3791 173.316 81.5162Z" fill="black"/>
</g>
<path d="M342.985 326.39L342.988 326.398L342.991 326.405C345.879 333.157 346.802 339.058 344.872 344.163C342.944 349.263 338.127 353.673 329.286 357.351L154.854 423.519C142.577 428.176 128.794 421.874 124.073 409.43L8.13058 103.557L8.13055 103.557C5.77271 97.341 6.35378 91.436 9.04569 86.502C11.7414 81.5611 16.5681 77.5696 22.7369 75.2296L197.176 9.05959C203.361 6.7133 209.733 6.11478 215.203 8.14215C220.658 10.1635 225.284 14.8203 227.949 23.1289L227.952 23.1386L227.956 23.148L342.985 326.39Z" stroke="url(#paint18_linear_2578_29783)" stroke-width="0.775959"/>
<defs>
<filter id="filter0_d_2578_29783" x="136.458" y="13.8656" width="312.916" height="491.183" filterUnits="userSpaceOnUse" color-interpolation-filters="sRGB">
<feFlood flood-opacity="0" result="BackgroundImageFix"/>
<feColorMatrix in="SourceAlpha" type="matrix" values="0 0 0 0 0 0 0 0 0 0 0 0 0 0 0 0 0 0 127 0" result="hardAlpha"/>
<feOffset dx="46.5575" dy="41.9018"/>
<feGaussianBlur stdDeviation="28.7105"/>
<feComposite in2="hardAlpha" operator="out"/>
<feColorMatrix type="matrix" values="0 0 0 0 0 0 0 0 0 0 0 0 0 0 0 0 0 0 0.65 0"/>
<feBlend mode="normal" in2="BackgroundImageFix" result="effect1_dropShadow_2578_29783"/>
<feBlend mode="normal" in="SourceGraphic" in2="effect1_dropShadow_2578_29783" result="shape"/>
</filter>
<filter id="filter1_bi_2578_29783" x="335.773" y="105.908" width="73.5296" height="85.7385" filterUnits="userSpaceOnUse" color-interpolation-filters="sRGB">
<feFlood flood-opacity="0" result="BackgroundImageFix"/>
<feGaussianBlur in="BackgroundImageFix" stdDeviation="7.48968"/>
<feComposite in2="SourceAlpha" operator="in" result="effect1_backgroundBlur_2578_29783"/>
<feBlend mode="normal" in="SourceGraphic" in2="effect1_backgroundBlur_2578_29783" result="shape"/>
<feColorMatrix in="SourceAlpha" type="matrix" values="0 0 0 0 0 0 0 0 0 0 0 0 0 0 0 0 0 0 127 0" result="hardAlpha"/>
<feOffset dy="0.936209"/>
<feGaussianBlur stdDeviation="0.234052"/>
<feComposite in2="hardAlpha" operator="arithmetic" k2="-1" k3="1"/>
<feColorMatrix type="matrix" values="0 0 0 0 1 0 0 0 0 1 0 0 0 0 1 0 0 0 0.23 0"/>
<feBlend mode="normal" in2="shape" result="effect2_innerShadow_2578_29783"/>
</filter>
<filter id="filter2_bi_2578_29783" x="68.8338" y="-30.3713" width="204.846" height="213.31" filterUnits="userSpaceOnUse" color-interpolation-filters="sRGB">
<feFlood flood-opacity="0" result="BackgroundImageFix"/>
<feGaussianBlur in="BackgroundImageFix" stdDeviation="38.798"/>
<feComposite in2="SourceAlpha" operator="in" result="effect1_backgroundBlur_2578_29783"/>
<feBlend mode="normal" in="SourceGraphic" in2="effect1_backgroundBlur_2578_29783" result="shape"/>
<feColorMatrix in="SourceAlpha" type="matrix" values="0 0 0 0 0 0 0 0 0 0 0 0 0 0 0 0 0 0 127 0" result="hardAlpha"/>
<feOffset dy="0.936209"/>
<feGaussianBlur stdDeviation="0.234052"/>
<feComposite in2="hardAlpha" operator="arithmetic" k2="-1" k3="1"/>
<feColorMatrix type="matrix" values="0 0 0 0 1 0 0 0 0 1 0 0 0 0 1 0 0 0 0.23 0"/>
<feBlend mode="normal" in2="shape" result="effect2_innerShadow_2578_29783"/>
</filter>
<linearGradient id="paint0_linear_2578_29783" x1="384.872" y1="97.9328" x2="129.949" y2="419.767" gradientUnits="userSpaceOnUse">
<stop stop-color="#329AE6"/>
<stop offset="1" stop-color="#372BC5" stop-opacity="0"/>
</linearGradient>
<linearGradient id="paint1_linear_2578_29783" x1="301.12" y1="375.82" x2="172.178" y2="72.495" gradientUnits="userSpaceOnUse">
<stop stop-color="#D9D9D9"/>
<stop offset="1" stop-color="#D9D9D9" stop-opacity="0"/>
</linearGradient>
<linearGradient id="paint2_linear_2578_29783" x1="407.616" y1="202.28" x2="222.789" y2="272.369" gradientUnits="userSpaceOnUse">
<stop stop-color="white"/>
<stop offset="1" stop-opacity="0"/>
</linearGradient>
<linearGradient id="paint3_linear_2578_29783" x1="361.781" y1="90.9084" x2="380.427" y2="176.772" gradientUnits="userSpaceOnUse">
<stop stop-color="white"/>
<stop offset="1" stop-color="white" stop-opacity="0"/>
</linearGradient>
<linearGradient id="paint4_linear_2578_29783" x1="-158.937" y1="-2.51783" x2="365.15" y2="297.468" gradientUnits="userSpaceOnUse">
<stop stop-color="white"/>
<stop offset="1" stop-color="#131C6C" stop-opacity="0"/>
</linearGradient>
<linearGradient id="paint5_linear_2578_29783" x1="101.07" y1="-106.323" x2="125.288" y2="-91.5714" gradientUnits="userSpaceOnUse">
<stop stop-color="#7F56FF"/>
<stop offset="1" stop-color="#512AC1"/>
</linearGradient>
<linearGradient id="paint6_linear_2578_29783" x1="128.561" y1="-45.2768" x2="208.564" y2="82.5344" gradientUnits="userSpaceOnUse">
<stop stop-color="#7F56FF"/>
<stop offset="1" stop-color="#512AC1"/>
</linearGradient>
<linearGradient id="paint7_linear_2578_29783" x1="163.069" y1="-24.2577" x2="243.071" y2="103.553" gradientUnits="userSpaceOnUse">
<stop stop-color="#7F56FF"/>
<stop offset="1" stop-color="#512AC1"/>
</linearGradient>
<linearGradient id="paint8_linear_2578_29783" x1="197.576" y1="-3.23867" x2="277.579" y2="124.572" gradientUnits="userSpaceOnUse">
<stop stop-color="#7F56FF"/>
<stop offset="1" stop-color="#512AC1"/>
</linearGradient>
<linearGradient id="paint9_linear_2578_29783" x1="232.084" y1="17.7804" x2="312.087" y2="145.591" gradientUnits="userSpaceOnUse">
<stop stop-color="#7F56FF"/>
<stop offset="1" stop-color="#512AC1"/>
</linearGradient>
<linearGradient id="paint10_linear_2578_29783" x1="266.592" y1="38.7994" x2="346.594" y2="166.611" gradientUnits="userSpaceOnUse">
<stop stop-color="#7F56FF"/>
<stop offset="1" stop-color="#512AC1"/>
</linearGradient>
<linearGradient id="paint11_linear_2578_29783" x1="301.1" y1="59.8185" x2="381.102" y2="187.63" gradientUnits="userSpaceOnUse">
<stop stop-color="#7F56FF"/>
<stop offset="1" stop-color="#512AC1"/>
</linearGradient>
<linearGradient id="paint12_linear_2578_29783" x1="335.607" y1="80.838" x2="415.61" y2="208.649" gradientUnits="userSpaceOnUse">
<stop stop-color="#7F56FF"/>
<stop offset="1" stop-color="#512AC1"/>
</linearGradient>
<linearGradient id="paint13_linear_2578_29783" x1="370.115" y1="101.857" x2="450.118" y2="229.668" gradientUnits="userSpaceOnUse">
<stop stop-color="#7F56FF"/>
<stop offset="1" stop-color="#512AC1"/>
</linearGradient>
<linearGradient id="paint14_linear_2578_29783" x1="411.639" y1="82.849" x2="434.994" y2="97.075" gradientUnits="userSpaceOnUse">
<stop stop-color="#7F56FF"/>
<stop offset="1" stop-color="#512AC1"/>
</linearGradient>
<linearGradient id="paint15_linear_2578_29783" x1="445.284" y1="103.343" x2="469.502" y2="118.094" gradientUnits="userSpaceOnUse">
<stop stop-color="#7F56FF"/>
<stop offset="1" stop-color="#512AC1"/>
</linearGradient>
<linearGradient id="paint16_linear_2578_29783" x1="62.5295" y1="324.804" x2="238.283" y2="363.008" gradientUnits="userSpaceOnUse">
<stop stop-color="#2B3049"/>
<stop offset="1" stop-color="#050712"/>
</linearGradient>
<linearGradient id="paint17_linear_2578_29783" x1="146.107" y1="53.8903" x2="209.025" y2="107.487" gradientUnits="userSpaceOnUse">
<stop stop-color="white"/>
<stop offset="1" stop-color="white" stop-opacity="0"/>
</linearGradient>
<linearGradient id="paint18_linear_2578_29783" x1="240.029" y1="103.67" x2="104.746" y2="255.598" gradientUnits="userSpaceOnUse">
<stop stop-color="white"/>
<stop offset="1" stop-opacity="0"/>
</linearGradient>
<clipPath id="clip0_2578_29783">
<rect width="113.947" height="41.0768" fill="white" transform="translate(119.332 358.082) rotate(-25.723)"/>
</clipPath>
</defs>
</svg>