<svg xmlns="http://www.w3.org/2000/svg" xmlns:xlink="http://www.w3.org/1999/xlink" width="682" height="652" fill="none" viewBox="0 0 682 652"><path fill="url(#paint0_linear)" fill-rule="evenodd" d="M98.0385 341.062L176.256 388.59C180.02 390.877 182.318 394.962 182.318 399.366V495.621C182.318 500.025 180.02 504.11 176.256 506.397L98.0386 553.925C94.0155 556.37 88.9658 556.37 84.9428 553.925L6.72507 506.397C2.9614 504.11 0.663646 500.025 0.663646 495.621V399.366C0.663646 394.962 2.9614 390.877 6.72506 388.59L84.9428 341.062C88.9658 338.617 94.0155 338.617 98.0385 341.062ZM84.5982 340.495C88.8329 337.922 94.1484 337.922 98.3832 340.495L176.601 388.023C180.563 390.43 182.981 394.73 182.981 399.366V495.621C182.981 500.257 180.563 504.557 176.601 506.964L98.3832 554.492C94.1484 557.066 88.833 557.066 84.5982 554.492L6.38044 506.964C2.41869 504.557 0 500.257 0 495.621V399.366C0 394.73 2.41869 390.43 6.38044 388.023L84.5982 340.495ZM98.0384 360.542L160.256 398.332C164.021 400.619 166.32 404.705 166.32 409.109V485.878C166.32 490.283 164.021 494.369 160.256 496.655L98.0384 534.446C94.0164 536.888 88.9687 536.888 84.9467 534.446L22.7289 496.655C18.9641 494.369 16.6655 490.283 16.6655 485.878V409.109C16.6655 404.705 18.9641 400.619 22.7289 398.332L84.9467 360.542C88.9687 358.099 94.0164 358.099 98.0384 360.542ZM84.6022 359.975C88.8359 357.403 94.1492 357.403 98.3829 359.975L160.601 397.765C164.564 400.172 166.983 404.473 166.983 409.109V485.878C166.983 490.515 164.564 494.815 160.601 497.223L98.3829 535.013C94.1492 537.584 88.8359 537.584 84.6022 535.013L22.3844 497.223C18.4214 494.815 16.0018 490.515 16.0018 485.878V409.109C16.0018 404.473 18.4214 400.172 22.3844 397.765L84.6022 359.975ZM140.777 410.086L98.0497 384.072C94.0221 381.62 88.9627 381.62 84.9351 384.072L42.2082 410.086C38.4499 412.374 36.1562 416.456 36.1562 420.856V474.13C36.1562 478.53 38.4499 482.611 42.2082 484.9L84.9351 510.914C88.9628 513.366 94.0221 513.366 98.0497 510.914L140.777 484.9C144.535 482.611 146.829 478.53 146.829 474.13V420.856C146.829 416.456 144.535 412.374 140.777 410.086ZM98.3948 383.505C94.1552 380.924 88.8296 380.924 84.59 383.505L41.863 409.519C37.9069 411.928 35.4925 416.224 35.4925 420.856V474.13C35.4925 478.761 37.9069 483.058 41.863 485.466L84.59 511.48C88.8296 514.062 94.1552 514.062 98.3948 511.48L141.122 485.466C145.078 483.058 147.492 478.761 147.492 474.13V420.856C147.492 416.224 145.078 411.928 141.122 409.519L98.3948 383.505ZM98.7514 407.234L122.569 421.687C126.337 423.973 128.637 428.06 128.637 432.467V462.536C128.637 466.943 126.337 471.03 122.569 473.316L98.7514 487.768C94.7317 490.207 89.6888 490.207 85.6692 487.768L61.8513 473.316C58.0838 471.03 55.7831 466.943 55.7831 462.536V432.467C55.7831 428.06 58.0838 423.973 61.8512 421.687L85.6691 407.234C89.6888 404.795 94.7317 404.795 98.7514 407.234ZM85.3249 406.667C89.5561 404.099 94.8644 404.099 99.0956 406.667L122.914 421.119C126.879 423.526 129.301 427.828 129.301 432.467V462.536C129.301 467.175 126.879 471.477 122.914 473.883L99.0956 488.335C94.8644 490.903 89.5561 490.903 85.3249 488.335L61.507 473.883C57.5412 471.477 55.1194 467.175 55.1194 462.536V432.467C55.1194 427.828 57.5412 423.526 61.507 421.119L85.3249 406.667Z" clip-rule="evenodd"/><g filter="url(#filter0_d)"><rect width="435" height="375" x="147" y="57" fill="url(#paint1_linear)" rx="24.139"/></g><rect width="431" height="371" x="149" y="59" stroke="url(#paint2_linear)" stroke-width="4" rx="21"/><g clip-path="url(#clip0)"><path fill="url(#paint3_linear)" d="M412.097 398.901L364.147 426.587L316.197 398.901L364.147 371.217L412.097 398.901Z" opacity=".6"/><path fill="url(#paint4_linear)" d="M412.455 226.628L364.505 254.311L316.555 226.628L364.505 198.945L412.455 226.628Z"/><path fill="#732EFF" d="M412.378 281.992L364.428 309.675V254.308L412.378 226.622V281.992Z"/><path fill="#7284FF" d="M364.505 309.675L316.555 281.992V226.622L364.505 254.308V309.675Z"/><path fill="url(#paint5_linear)" d="M364.736 254.265L316.787 281.948L268.837 254.265L316.787 226.581L364.736 254.265Z"/><path fill="#732EFF" d="M364.66 309.625L316.71 337.311V281.942L364.66 254.259V309.625Z"/><path fill="#7284FF" d="M316.787 337.311L268.837 309.625V254.259L316.787 281.942V337.311Z"/><path fill="url(#paint6_linear)" d="M412.252 281.484L364.305 309.17L316.355 281.484L364.305 253.801L412.252 281.484Z"/><path fill="#732EFF" d="M412.179 336.848L364.229 364.531V309.165L412.179 281.481V336.848Z"/><path fill="#7284FF" d="M364.305 364.531L316.355 336.848V281.481L364.305 309.165V364.531Z"/><path fill="#311E66" d="M311.063 282.831L263.113 310.514L215.163 282.831L263.113 255.148L311.063 282.831Z"/><path fill="url(#paint7_linear)" d="M311.063 338.133L263.113 365.816L215.163 338.133L263.113 310.449L311.063 338.133Z"/><path fill="#4F20B0" d="M310.987 338.191L263.037 365.878V310.508L310.987 282.825V338.191Z"/><path fill="#6575E2" d="M262.861 365.628L215.163 338.191V282.825L262.861 310.262V365.628Z"/><path fill="url(#paint8_linear)" d="M358.582 310.05L310.632 337.737L262.682 310.05L310.632 282.367L358.582 310.05Z"/><path fill="url(#paint9_linear)" d="M358.582 365.664L310.632 393.347L262.682 365.664L310.632 337.978L319.09 342.862L358.582 365.664Z"/><path fill="#311E66" d="M305.574 335.12L333.289 350.689L322 339.74L305.06 331.015L305.574 335.12Z"/><path fill="url(#paint10_linear)" d="M358.505 310.048L310.594 337.71L262.682 310.048V365.414L310.555 393.053V393.097L310.594 393.077L310.632 393.097V393.053L358.505 365.414V310.048Z" opacity=".6"/><path fill="url(#paint11_linear)" d="M317.453 360.256L308.284 354.976L305.445 353.339L304.077 352.549C303.265 352.08 302.024 352.03 301.326 352.438L296.001 355.515L294.088 356.621L292.97 357.267L279.897 364.821L278.33 365.728C277.629 366.133 277.717 366.843 278.53 367.309L279.9 368.101L282.743 369.738L285.583 371.378L291.908 375.028C292.724 375.497 293.962 375.547 294.663 375.14L317.652 361.852C318.356 361.439 318.268 360.729 317.453 360.256Z" opacity=".3"/><path fill="#EB3B8C" d="M318.101 350.369L295.112 363.657C294.408 364.064 293.175 364.015 292.36 363.542L278.985 355.829C278.169 355.36 278.081 354.656 278.785 354.242L301.777 340.955C302.481 340.547 303.714 340.597 304.529 341.066L317.901 348.779C318.717 349.249 318.805 349.973 318.101 350.369Z"/><path fill="#F451A3" d="M283.189 354.979L280.352 356.619L278.979 355.827C278.166 355.36 278.078 354.653 278.782 354.245L280.349 353.339L283.189 354.979Z"/><path fill="#F451A3" d="M288.866 351.699L286.029 353.339L283.186 351.699L286.026 350.059L288.866 351.699Z"/><path fill="#DB3186" d="M291.703 350.058L288.866 351.698L286.026 350.058L288.863 348.418L291.703 350.058Z"/><path fill="#DB3186" d="M294.543 348.415L291.703 350.058L288.863 348.418L291.7 346.778L294.543 348.415Z"/><path fill="#DB3186" d="M297.379 346.776L294.542 348.416L291.7 346.779L294.539 345.139L297.379 346.776Z"/><path fill="#DB3186" d="M300.219 345.136L297.38 346.776L294.54 345.139L297.377 343.499L300.219 345.136Z"/><path fill="#DB3186" d="M303.056 343.496L300.219 345.136L297.377 343.499L300.217 341.856L303.056 343.496Z"/><path fill="#F451A3" d="M288.869 354.976L286.032 356.616L283.189 354.979L286.029 353.339L288.869 354.976Z"/><path fill="#DB3186" d="M303.059 346.775L300.222 348.415L297.38 346.775L300.22 345.135L303.059 346.775Z"/><path fill="#DB3186" d="M308.736 343.493L305.897 345.136L303.057 343.496L305.894 341.856L308.736 343.493Z"/><path fill="#F451A3" d="M288.872 358.256L286.035 359.896L283.192 358.259L286.032 356.616L288.872 358.256Z"/><path fill="#FFBC00" d="M310.84 350.965C310.318 350.672 310.071 350.264 310.092 349.868C309.483 349.866 308.884 350.014 308.346 350.299C307.34 350.886 307.34 351.822 308.346 352.403C308.911 352.689 309.535 352.838 310.168 352.838C310.801 352.838 311.425 352.689 311.99 352.403C312.19 352.312 312.363 352.172 312.494 351.996C312.625 351.82 312.709 351.614 312.738 351.396C312.079 351.421 311.424 351.272 310.84 350.965Z"/><path fill="#FFDA00" d="M310.84 348.858C310.64 348.95 310.467 349.091 310.336 349.267C310.206 349.444 310.122 349.65 310.092 349.868C310.751 349.842 311.406 349.99 311.99 350.299C312.512 350.592 312.759 351 312.738 351.396C313.351 351.4 313.956 351.252 314.498 350.965C315.505 350.378 315.505 349.439 314.498 348.858C313.932 348.57 313.305 348.419 312.669 348.419C312.033 348.419 311.406 348.57 310.84 348.858Z"/><path fill="#FDAD0C" d="M312.832 351.296C312.962 351.015 312.43 350.492 311.644 350.128C310.857 349.763 310.114 349.695 309.984 349.976C309.854 350.257 310.386 350.78 311.172 351.144C311.959 351.509 312.702 351.577 312.832 351.296Z"/><path fill="#BC2477" d="M303.772 351.564L289.854 359.599C289.692 359.672 289.515 359.706 289.337 359.699C289.159 359.691 288.986 359.642 288.83 359.555C288.537 359.379 288.493 359.115 288.757 358.968L302.675 350.933C302.837 350.859 303.014 350.825 303.192 350.832C303.37 350.839 303.543 350.888 303.699 350.974C304.001 351.147 304.033 351.411 303.772 351.564Z"/><path fill="#BC2477" d="M303.799 343.281L301.868 344.396C301.698 344.482 301.51 344.526 301.32 344.526C301.129 344.526 300.941 344.482 300.771 344.396C300.705 344.374 300.647 344.331 300.607 344.274C300.566 344.218 300.544 344.149 300.544 344.079C300.544 344.009 300.566 343.941 300.607 343.884C300.647 343.828 300.705 343.785 300.771 343.763L302.702 342.645C302.872 342.559 303.06 342.515 303.25 342.515C303.441 342.515 303.629 342.559 303.799 342.645C303.866 342.667 303.925 342.709 303.967 342.766C304.008 342.823 304.031 342.892 304.031 342.963C304.031 343.034 304.008 343.103 303.967 343.16C303.925 343.217 303.866 343.26 303.799 343.281Z"/><path fill="url(#paint12_linear)" d="M459.973 253.848L412.023 281.534L364.073 253.848L412.023 226.165L459.973 253.848Z"/><path fill="#732EFF" d="M459.897 309.211L411.947 336.897V281.528L459.897 253.845V309.211Z"/><path fill="#7284FF" d="M412.023 336.897L364.073 309.211V253.845L412.023 281.528V336.897Z"/><path fill="#311E66" d="M507.489 285.871L459.539 313.554L411.592 285.871L459.542 258.187L507.489 285.871Z"/><path fill="#732EFF" d="M507.416 341.234L459.466 368.917V313.55L507.416 285.867V341.234Z"/><path fill="url(#paint13_linear)" d="M507.416 341.234L459.466 368.917V313.55L507.416 285.867V341.234Z" opacity=".6"/><path fill="#7284FF" d="M459.542 368.917L411.592 341.234V285.867L459.542 313.55V368.917Z"/><path fill="url(#paint14_linear)" d="M459.771 316.215L411.821 343.898L363.871 316.215L411.821 288.531L459.771 316.215Z"/><path fill="#6629E2" d="M459.695 316.211V371.581L411.745 399.258V343.895L417.926 340.324L459.695 316.211Z"/><path fill="#311E66" d="M411.821 399.261L363.871 371.578V316.211L411.821 343.895V399.261Z"/><path fill="url(#paint15_linear)" d="M412.455 170.992L364.505 198.675L316.555 170.992L364.505 143.308L412.455 170.992Z"/><path fill="#732EFF" d="M412.378 226.353L364.428 254.039V198.669L412.378 170.986V226.353Z"/><path fill="#7284FF" d="M364.505 254.039L316.555 226.353V170.986L364.505 198.669V254.039Z"/><path fill="url(#paint16_linear)" d="M459.973 198.212L412.023 225.895L364.073 198.212L412.023 170.528L459.973 198.212Z"/><path fill="#732EFF" d="M459.897 253.575L411.947 281.258V225.892L459.897 198.208V253.575Z"/><path fill="#7284FF" d="M412.023 281.258L364.073 253.575V198.208L412.023 225.892V281.258Z"/><path fill="url(#paint17_linear)" d="M517.353 232.592L469.403 260.275L421.456 232.592L469.406 204.909L517.353 232.592Z" opacity=".9"/><path fill="url(#paint18_linear)" d="M517.353 232.592L469.403 260.275L421.456 232.592L469.406 204.909L517.353 232.592Z" opacity=".6"/><path fill="url(#paint19_linear)" d="M517.353 287.9L469.403 315.587L421.456 287.9L469.406 260.217L517.353 287.9Z" opacity=".9"/><path fill="url(#paint20_linear)" d="M469.579 259.291L421.456 232.593L469.403 260.276L517.353 232.593L469.579 259.291Z" opacity=".9"/><path fill="#311E66" d="M517.279 232.587L469.367 260.25L421.456 232.587V287.956L469.329 315.596V315.64L469.367 315.616L469.406 315.64V315.596L517.279 287.956V232.587Z"/><path fill="#6629E2" d="M517.505 287.578L469.555 315.261V259.894L517.505 232.211V287.578Z"/><path fill="url(#paint21_linear)" d="M364.736 198.628L316.787 226.311L268.837 198.628L316.787 170.942L364.736 198.628Z"/><path fill="#732EFF" d="M364.66 253.989L316.71 281.672V226.306L364.66 198.622V253.989Z"/><path fill="#7284FF" d="M316.787 281.672L268.837 253.989V198.622L316.787 226.306V281.672Z"/><path fill="url(#paint22_linear)" d="M412.252 225.848L364.305 253.531L316.355 225.848L364.305 198.165L412.252 225.848Z"/><path fill="#732EFF" d="M412.179 281.211L364.229 308.895V253.528L412.179 225.845V281.211Z"/><path fill="#7284FF" d="M364.305 308.895L316.355 281.211V225.845L364.305 253.528V308.895Z"/><path fill="#311E66" d="M459.771 261.106L411.821 288.789L363.871 261.106L411.821 233.422L459.771 261.106Z"/><path fill="#6629E2" d="M459.695 261.1V316.47L417.926 340.586L411.745 344.153V288.787L417.926 285.216L459.695 261.1Z"/><path fill="#6575E2" d="M411.821 344.153L363.871 316.47V261.103L411.821 288.787V344.153Z"/><path fill="url(#paint23_linear)" d="M307.466 219.728L259.516 247.411L211.566 219.728L259.516 192.042L307.466 219.728Z"/><path fill="url(#paint24_linear)" d="M211.566 219.722L259.516 192.194L211.566 164.511V219.722Z" opacity=".3"/><path fill="#311E66" d="M307.19 220.062L259.24 192.379V137.009L307.19 164.695V220.062Z"/><path fill="url(#paint25_linear)" d="M307.39 164.508L259.478 192.171L211.566 164.508V219.875L259.44 247.514V247.558L259.478 247.537L259.516 247.558V247.514L307.39 219.875V164.508Z" opacity=".5"/><path fill="#4F20B0" d="M307.39 275.088L259.44 302.771V247.405L307.39 219.722V275.088Z"/><path fill="#6575E2" d="M259.516 302.771L211.566 275.088V219.722L259.516 247.405V302.771Z"/><path fill="#311E66" d="M358.582 254.942L310.632 282.628L262.682 254.945L310.632 227.259L358.582 254.942Z"/><path fill="#4F20B0" d="M358.505 310.306L310.555 337.992V282.622L358.505 254.939V310.306Z"/><path fill="#4F20B0" d="M310.937 326.676V393.297L322.654 386.405L317.831 322.769L310.937 326.676Z" opacity=".6"/><path fill="#4F20B0" d="M259.458 192.608L259.572 258.486L268.599 242.071L268.919 198.111L259.458 192.608Z" opacity=".6"/><path fill="#6575E2" d="M310.632 337.992L262.682 310.306V254.939L310.632 282.622V337.992Z"/><path fill="#C5C5FF" d="M402.858 109.379L354.908 137.063L306.958 109.379L354.911 81.696L402.858 109.379Z"/><path fill="#4F20B0" d="M402.782 164.743L354.835 192.426V137.059L402.782 109.376V164.743Z"/><path fill="#6575E2" d="M354.911 192.426L306.958 164.743V109.376L354.911 137.059V192.426Z"/><path fill="#C5C5FF" d="M459.973 142.997L412.023 170.681L364.073 142.997L412.023 115.314L459.973 142.997Z"/><path fill="#5121B4" d="M459.897 198.361L411.947 226.044V170.678L459.897 142.994V198.361Z"/><path fill="#515DB4" d="M412.023 226.044L364.073 198.361V142.994L412.023 170.678V226.044Z"/><path fill="#311E66" d="M507.489 225.569L459.539 253.252L411.592 225.569L459.542 197.886L507.489 225.569Z"/><path stroke="#43E8E1" stroke-miterlimit="10" stroke-width=".88" d="M503.977 223.281L459.539 248.937L411.589 221.254L459.539 193.57L503.977 219.226C504.331 219.433 504.625 219.729 504.83 220.085C505.034 220.44 505.141 220.843 505.141 221.254C505.141 221.664 505.034 222.067 504.83 222.422C504.625 222.778 504.331 223.074 503.977 223.281V223.281Z"/><path stroke="#43E8E1" stroke-miterlimit="10" stroke-width=".88" d="M503.977 215.606L459.539 241.262L411.589 213.579L459.539 185.895L503.977 211.551C504.331 211.758 504.625 212.054 504.83 212.41C505.034 212.765 505.141 213.168 505.141 213.579C505.141 213.989 505.034 214.392 504.83 214.747C504.625 215.103 504.331 215.399 503.977 215.606V215.606Z"/><path stroke="#43E8E1" stroke-miterlimit="10" stroke-width=".88" d="M503.977 207.934L459.539 233.59L411.589 205.907L459.539 178.224L503.977 203.871C504.334 204.077 504.629 204.373 504.835 204.73C505.041 205.086 505.149 205.491 505.149 205.902C505.149 206.314 505.041 206.719 504.835 207.075C504.629 207.432 504.334 207.728 503.977 207.934V207.934Z"/><path stroke="#43E8E1" stroke-miterlimit="10" stroke-width=".88" d="M503.977 200.26L459.539 225.919L411.589 198.235L459.539 170.549L503.977 196.208C504.331 196.415 504.624 196.711 504.828 197.066C505.032 197.422 505.139 197.824 505.139 198.234C505.139 198.643 505.032 199.046 504.828 199.401C504.624 199.757 504.331 200.053 503.977 200.26V200.26Z"/><path stroke="#43E8E1" stroke-miterlimit="10" stroke-width=".88" d="M503.977 192.587L459.539 218.246L411.589 190.563L459.539 162.88L503.977 188.536C504.331 188.743 504.624 189.038 504.828 189.394C505.032 189.749 505.139 190.152 505.139 190.561C505.139 190.971 505.032 191.374 504.828 191.729C504.624 192.084 504.331 192.38 503.977 192.587Z"/><path stroke="#43E8E1" stroke-miterlimit="10" stroke-width=".88" d="M503.977 184.916L459.539 210.572L411.589 182.888L459.539 155.205L503.977 180.861C504.331 181.068 504.625 181.364 504.83 181.719C505.034 182.075 505.141 182.478 505.141 182.888C505.141 183.299 505.034 183.702 504.83 184.057C504.625 184.413 504.331 184.709 503.977 184.916V184.916Z"/><path stroke="#43E8E1" stroke-miterlimit="10" stroke-width=".88" d="M503.977 177.241L459.539 202.897L411.589 175.214L459.539 147.542L503.977 173.198C504.329 173.405 504.62 173.701 504.823 174.056C505.025 174.41 505.131 174.811 505.131 175.219C505.131 175.628 505.025 176.029 504.823 176.383C504.62 176.738 504.329 177.033 503.977 177.241V177.241Z"/><path fill="#515DB4" d="M459.542 253.308L411.592 225.622V170.255L459.542 197.939V253.308Z"/><path fill="#C5C5FF" d="M507.489 170.261L459.539 197.944L411.592 170.261L459.542 142.575L507.489 170.261Z"/><path fill="#C5C5FF" d="M355.14 137.016L307.19 164.699L259.24 137.016L307.19 109.333L355.14 137.016Z"/><path fill="#4F20B0" d="M355.064 192.379L307.117 220.062V164.695L355.064 137.009V192.379Z"/><path fill="#311E66" d="M412.252 170.634L364.305 198.317L316.355 170.634L364.305 142.951L412.252 170.634Z"/><path fill="#732EFF" d="M412.179 225.997L364.229 253.68V198.314L412.179 170.628V225.997Z"/><path fill="#7284FF" d="M364.305 253.68L316.355 225.997V170.628L364.305 198.314V253.68Z"/><path fill="#C5C5FF" d="M459.771 197.894L411.821 225.58L363.871 197.894L411.821 170.211L459.771 197.894Z"/><path fill="url(#paint26_linear)" d="M459.771 197.894L411.821 225.58L363.871 197.894L411.821 170.211L459.771 197.894Z" opacity=".6"/><path fill="#5121B4" d="M459.695 197.892V253.258L417.926 277.374L411.745 280.944V225.575L459.695 197.892Z"/><path fill="#515DB4" d="M411.821 280.941L363.871 253.258V197.892L411.821 225.575V280.941Z"/><path fill="url(#paint27_linear)" d="M307.466 164.511L259.516 192.194L211.566 164.511L259.516 136.828L307.466 164.511Z" opacity=".9"/><path fill="url(#paint28_linear)" d="M259.516 136.828L211.566 164.511L259.516 192.194L212.916 164.438L259.516 136.828Z" opacity=".9"/><path fill="url(#paint29_linear)" d="M412.097 330.425L364.147 358.109L316.197 330.425L364.147 302.742L412.097 330.425Z"/><path fill="#5B24C9" d="M412.02 385.789L364.07 413.473V358.106L412.02 330.423V385.789Z"/><path fill="#6575E2" d="M364.147 413.473L316.197 385.789V330.423L364.147 358.106V413.473Z"/><path fill="url(#paint30_linear)" d="M412.097 275.317L364.147 303.003L316.197 275.317L364.147 247.634L412.097 275.317Z"/><path fill="#5B24C9" d="M412.02 330.681L364.07 358.364V302.998L412.02 275.315V330.681Z"/><path fill="#6575E2" d="M364.147 358.364L316.197 330.681V275.315L364.147 302.998V358.364Z"/><path fill="#C5C5FF" d="M364.578 192.843L316.628 220.526L268.678 192.843L316.628 165.159L364.578 192.843Z"/><path fill="#5B24C9" d="M364.502 248.203L316.552 275.887V220.52L364.502 192.837V248.203Z"/><path fill="#6575E2" d="M316.628 275.887L268.678 248.203V192.837L316.628 220.52V275.887Z"/><path fill="url(#paint31_linear)" d="M412.097 220.104L364.147 247.787L316.197 220.104L364.147 192.42L412.097 220.104Z" opacity=".9"/><path fill="url(#paint32_linear)" d="M364.138 246.733L316.197 220.103L364.147 247.787L412.097 220.103L364.138 246.733Z" opacity=".9"/><path fill="url(#paint33_linear)" d="M412.021 219.907L364.109 247.569L316.197 219.907V275.276L364.071 302.915V302.959L364.109 302.936L364.147 302.959V302.915L412.021 275.276V219.907Z" opacity=".6"/><g opacity=".3"><path fill="url(#paint34_linear)" d="M373.315 261L386.461 268.59C387.415 269.142 387.987 269.846 388.078 270.573C388.169 271.301 387.764 271.961 386.939 272.436L358.144 288.951C357.148 289.456 356.032 289.681 354.917 289.599C353.713 289.56 352.535 289.238 351.479 288.66L338.332 281.07C337.379 280.519 336.804 279.815 336.713 279.087C336.622 278.36 337.027 277.699 337.854 277.227L366.649 260.727C367.645 260.218 368.762 259.994 369.876 260.079C371.079 260.112 372.257 260.427 373.315 261Z" opacity=".3"/></g><path fill="#2E2553" d="M380.643 247.335L393.79 254.919C394.743 255.467 395.315 256.172 395.406 256.899C395.497 257.627 395.092 258.29 394.268 258.762L365.473 275.262C364.477 275.769 363.36 275.993 362.246 275.91C361.041 275.872 359.863 275.551 358.807 274.971L345.661 267.382C344.707 266.833 344.132 266.129 344.041 265.401C343.95 264.674 344.355 264.011 345.183 263.538L373.978 247.039C374.974 246.531 376.09 246.307 377.205 246.39C378.409 246.43 379.588 246.754 380.643 247.335Z"/><path fill="#2E2553" d="M395.421 257.192V255.385L393.91 256.653L395.421 257.192Z"/><path fill="#EBF7FD" d="M380.643 245.707L393.79 253.296C394.743 253.845 395.315 254.549 395.406 255.277C395.497 256.004 395.092 256.667 394.268 257.14L365.473 273.639C364.477 274.147 363.36 274.371 362.246 274.288C361.041 274.25 359.863 273.928 358.807 273.349L345.646 265.774C344.693 265.225 344.118 264.521 344.027 263.794C343.936 263.066 344.341 262.403 345.168 261.931L373.963 245.431C374.959 244.923 376.076 244.699 377.19 244.783C378.398 244.814 379.581 245.131 380.643 245.707Z"/><path fill="#2E2553" d="M379.849 246.161C378.382 245.313 376.149 245.217 374.876 245.944L346.084 262.444C344.81 263.174 344.969 264.456 346.439 265.304L359.585 272.894C361.052 273.745 363.284 273.839 364.558 273.111L393.353 256.611C394.626 255.881 394.465 254.599 392.995 253.751L391.323 252.783L390.762 253.106C390.43 253.254 390.067 253.323 389.703 253.308C389.339 253.292 388.983 253.192 388.665 253.015L381.113 248.655C380.497 248.297 380.43 247.754 380.964 247.449L381.524 247.126L379.849 246.161Z"/><path fill="#2E2553" d="M388.267 251.714C388.194 251.748 388.114 251.763 388.034 251.76C387.954 251.757 387.875 251.735 387.805 251.697C387.67 251.618 387.655 251.498 387.772 251.43C387.845 251.398 387.925 251.382 388.005 251.386C388.085 251.39 388.163 251.412 388.232 251.451C388.37 251.527 388.385 251.647 388.267 251.714Z"/><path fill="#2E2553" d="M387.485 251.266C387.412 251.299 387.332 251.314 387.252 251.311C387.171 251.308 387.093 251.286 387.022 251.248L384.056 249.544C383.918 249.465 383.903 249.344 384.021 249.277C384.094 249.244 384.174 249.229 384.254 249.232C384.335 249.235 384.413 249.256 384.484 249.294L387.45 250.999C387.588 251.078 387.603 251.199 387.485 251.266Z"/><path fill="url(#paint35_linear)" d="M429.749 215.274V270.503L411.745 280.944V225.713L429.749 215.274Z" opacity=".6"/><path fill="url(#paint36_linear)" d="M411.745 288.786L431.413 277.054V379.672L411.745 391.405V288.786Z" opacity=".6"/><path fill="url(#paint37_linear)" d="M311.063 338.133L310.937 393.297L276.127 373.465L309.945 392.006L311.063 338.133Z" opacity=".9"/><path fill="url(#paint38_linear)" d="M268.109 217.756C263.761 221.248 243.09 226.097 243.09 226.097C243.09 226.097 247.491 213.244 251.833 209.756C256.175 206.268 260.047 208.395 264.545 210.604C269.042 212.813 272.454 214.268 268.109 217.756Z" opacity=".5"/><path fill="#A8CFF0" d="M254.954 203.337C250.847 201.01 246.822 197.044 243.451 191.986L243.407 191.959C240.036 193.133 236.016 192.452 231.903 190.029L231.748 189.938L231.971 197.622C232.751 209.53 236.811 214.714 243.348 225.786L243.509 225.877C250.046 222.356 254.106 221.861 254.886 210.853L255.109 203.425L254.954 203.337Z"/><path fill="#D1EBFF" d="M257.272 201.571C253.165 199.244 249.139 195.275 245.771 190.22L245.724 190.194C242.356 191.367 238.337 190.686 234.224 188.263L234.066 188.172L231.792 189.965L231.906 190.029C236.014 192.453 240.036 193.124 243.407 191.96L243.451 191.986C246.822 197.044 250.841 201.01 254.954 203.337L255.11 203.425L254.887 210.853C254.379 218.038 252.469 220.743 249.389 222.735C253.238 220.461 256.635 217.161 257.207 209.084L257.43 201.659L257.272 201.571Z"/><path fill="#D1EBFF" d="M257.43 201.659L257.272 201.571C253.165 199.244 249.139 195.275 245.771 190.22L245.724 190.193L243.407 191.954L243.451 191.98C246.822 197.038 250.841 201.004 254.954 203.331L255.11 203.419L257.43 201.659Z"/><path fill="#72B5E8" d="M255.116 203.425L254.893 210.853C254.385 218.038 252.475 220.743 249.395 222.735C253.244 220.461 256.641 217.161 257.213 209.084L257.436 201.659L255.116 203.425Z"/><path fill="#921DF6" d="M242.676 220.112C237.982 212.332 235.635 208.415 235.048 199.869L234.919 195.383C237.932 196.747 240.819 197.181 243.427 196.662C246.027 200.183 248.913 203.084 251.935 205.2L251.806 209.533C251.237 217.416 248.872 218.607 244.178 220.975L243.43 221.353C243.172 220.936 242.923 220.52 242.676 220.112Z"/><path fill="#001A46" d="M244.554 220.64L243.806 221.021L243.052 219.772C238.358 211.991 236.011 208.078 235.424 199.529L235.309 195.559L234.91 195.383L235.039 199.869C235.609 208.406 237.973 212.323 242.667 220.112C242.914 220.52 243.163 220.936 243.421 221.359L244.169 220.98C246.085 220.015 247.611 219.247 248.784 218.138C247.675 219.07 246.276 219.778 244.554 220.64Z"/></g><g opacity=".6"><path fill="#311E66" d="M174.168 88.1464C177.454 88.1464 180.118 85.4829 180.118 82.1973C180.118 78.9118 177.454 76.2483 174.168 76.2483C170.882 76.2483 168.218 78.9118 168.218 82.1973C168.218 85.4829 170.882 88.1464 174.168 88.1464Z"/><path fill="#311E66" d="M197.793 88.1464C201.079 88.1464 203.743 85.4829 203.743 82.1973C203.743 78.9118 201.079 76.2483 197.793 76.2483C194.506 76.2483 191.843 78.9118 191.843 82.1973C191.843 85.4829 194.506 88.1464 197.793 88.1464Z" opacity=".6"/><path fill="#311E66" d="M221.331 88.1464C224.617 88.1464 227.281 85.4829 227.281 82.1973C227.281 78.9118 224.617 76.2483 221.331 76.2483C218.045 76.2483 215.381 78.9118 215.381 82.1973C215.381 85.4829 218.045 88.1464 221.331 88.1464Z" opacity=".3"/></g><g filter="url(#filter1_d)"><path fill="#392F77" d="M587.144 200.113C584.339 198.834 581.114 198.856 578.328 200.173L551.942 212.643C548.282 214.373 545.947 218.059 545.947 222.107V245.723C545.947 259.322 553.021 272.372 565.585 282.008L578.543 289.331C581.807 291.176 585.808 291.134 589.033 289.222L601.201 282.008C613.764 272.372 620.838 259.322 620.838 245.723V222.208C620.838 218.108 618.444 214.385 614.713 212.684L587.144 200.113Z"/></g><path fill="url(#paint39_linear)" d="M620.898 215.475L581.867 198V291.214L583.818 292.312L601.199 282.006C613.762 272.371 620.837 259.321 620.837 245.722V215.475H620.898Z" opacity=".2"/><path fill="#fff" d="M583.394 257.613C593.836 257.613 602.3 249.149 602.3 238.708C602.3 228.268 593.836 219.804 583.394 219.804C572.953 219.804 564.489 228.268 564.489 238.708C564.489 249.149 572.953 257.613 583.394 257.613Z"/><path fill="#7347BB" d="M581.074 247.734L573.512 240.965L576.012 238.16L580.952 242.551L590.649 232.367L593.332 234.928L581.074 247.734Z"/><path fill="url(#paint40_linear)" d="M80.8182 480.832C78.339 480.832 76.2819 478.775 76.2819 476.297V376.655C76.2819 374.176 78.339 366.916 80.8182 366.916H225.771C228.25 366.916 230.308 374.176 230.308 376.655V476.297C230.308 478.775 228.25 480.832 225.771 480.832H80.8182Z"/><path fill="#6F4DAB" d="M210.9 470.9L217.8 464L210.9 457.1L213 455L222 464L213 473L210.9 470.9ZM203.1 470.9L196.2 464L203.1 457.1L201 455L192 464L201 473L203.1 470.9Z"/><path fill="#311E66" d="M226.168 366.916H80.8319C78.3452 366.916 76.2819 369.87 76.2819 373.431V382.22H230.718V373.356C230.718 369.795 228.707 366.916 226.168 366.916Z"/><g filter="url(#filter2_d)"><g style="mix-blend-mode:overlay"><rect width="134.056" height="258.822" x="511.674" y="330.227" fill="url(#paint41_linear)" rx="14.6"/></g><g style="mix-blend-mode:overlay"><rect width="132.056" height="256.822" x="512.674" y="331.227" stroke="url(#paint42_linear)" stroke-width="2" rx="13.6"/></g><rect width="134.056" height="159.275" x="511.674" y="431.101" fill="url(#paint43_linear)" rx="14.6"/><rect width="11.63" height="5.286" fill="#613CA3" opacity=".5" rx="2.643" transform="matrix(1 0 0 -1 524.048 346.559)"/><circle r="2.643" fill="#613CA3" opacity=".5" transform="matrix(1 0 0 -1 613.312 343.916)"/><circle r="2.643" fill="#613CA3" opacity=".5" transform="matrix(1 0 0 -1 621.066 343.916)"/><rect width="8.458" height="4.934" fill="#613CA3" opacity=".5" rx="2.467" transform="matrix(1 0 0 -1 625.824 346.559)"/><g opacity=".3"><rect width="20.315" height="19.614" x="530.256" y="505.429" fill="#0F0D5A" rx="9.807"/><rect width="20.315" height="20.315" x="530.256" y="535.551" fill="#0F0D5A" rx="10.158"/><rect width="62.346" height="5.604" x="530.257" y="454.992" fill="#0F0D5A" rx="2.655"/><rect width="20.315" height="20.315" x="530.256" y="473.906" fill="#0F0D5A" rx="10.158"/><rect width="50.437" height="2.802" x="557.576" y="510.332" fill="#0F0D5A" rx="1.401"/><rect width="50.437" height="2.802" x="557.576" y="540.454" fill="#0F0D5A" rx="1.401"/><rect width="32.924" height="2.802" x="557.576" y="517.337" fill="#0F0D5A" rx="1.401"/><rect width="32.924" height="2.802" x="557.576" y="547.459" fill="#0F0D5A" rx="1.401"/><rect width="50.437" height="2.802" x="557.576" y="479.51" fill="#0F0D5A" rx="1.401"/><rect width="32.924" height="2.802" x="557.576" y="486.514" fill="#0F0D5A" rx="1.401"/><path fill="#0F0D5A" d="M622.036 510.597C622.036 510.098 622.514 509.822 623.246 509.822C623.809 509.822 624.616 510.024 625.423 510.512L625.943 509.408C625.359 509.015 624.584 508.739 623.777 508.665V507.274L622.843 507.284V508.675C621.505 508.824 620.634 509.578 620.634 510.714C620.634 513.358 624.648 512.434 624.648 514.091C624.648 514.664 624.128 514.993 623.257 514.993C622.461 514.993 621.505 514.611 620.74 513.91L620.199 514.993C620.879 515.62 621.824 516.066 622.843 516.151V517.637H623.777V516.14C625.126 515.981 626.039 515.206 626.039 514.027C626.05 511.351 622.036 512.222 622.036 510.597Z"/><path fill="#0F0D5A" d="M622.036 543.521C622.036 543.022 622.514 542.746 623.246 542.746C623.809 542.746 624.616 542.948 625.423 543.436L625.943 542.332C625.359 541.939 624.584 541.663 623.777 541.589V540.198L622.843 540.208V541.599C621.505 541.748 620.634 542.502 620.634 543.638C620.634 546.282 624.648 545.358 624.648 547.015C624.648 547.588 624.128 547.917 623.257 547.917C622.461 547.917 621.505 547.535 620.74 546.834L620.199 547.917C620.879 548.544 621.824 548.99 622.843 549.075V550.561H623.777V549.064C625.126 548.905 626.039 548.13 626.039 546.951C626.05 544.275 622.036 545.146 622.036 543.521Z"/><path fill="#0F0D5A" d="M622.038 479.774C622.038 479.275 622.515 478.999 623.248 478.999C623.811 478.999 624.618 479.201 625.425 479.689L625.945 478.585C625.361 478.192 624.586 477.916 623.779 477.842V476.451L622.845 476.461V477.852C621.507 478.001 620.636 478.755 620.636 479.891C620.636 482.535 624.65 481.611 624.65 483.268C624.65 483.841 624.129 484.17 623.259 484.17C622.462 484.17 621.507 483.788 620.742 483.087L620.201 484.17C620.88 484.797 621.825 485.243 622.845 485.328V486.814H623.779V485.317C625.128 485.158 626.041 484.383 626.041 483.204C626.051 480.528 622.038 481.399 622.038 479.774Z"/></g><g style="mix-blend-mode:overlay"><rect width="110.165" height="38.492" x="523.62" y="375.354" fill="#fff" rx="9.291" style="mix-blend-mode:multiply"/></g><path stroke="#422EDC" stroke-width="1.327" d="M538.221 389.955V399.056M535.567 396.402L538.221 399.246L540.876 396.402"/><path stroke="#FF8A8A" stroke-width="1.327" d="M584.676 399.246L584.676 391.444M587.331 393.72L584.676 391.282L582.022 393.72"/><rect width="26.546" height="6.636" x="546.185" y="391.282" fill="#E2E5FF" rx="3.318" style="mix-blend-mode:multiply"/><rect width="27.873" height="6.636" x="592.64" y="391.282" fill="#FEDEE9" rx="3.318" style="mix-blend-mode:multiply"/></g><path stroke="#6541BB" stroke-width="1.069" d="M168 224L168 187L212 187"/><path fill="#13296F" d="M149.424 287.728C148.406 288.337 147.136 288.336 146.119 287.727L109.793 265.975C107.706 264.726 107.707 261.702 109.794 260.454L146.12 238.727C147.137 238.118 148.405 238.118 149.422 238.726L185.772 260.453C187.86 261.702 187.861 264.727 185.774 265.976L149.424 287.728Z"/><path fill="#4A59D9" d="M149.423 273.925C148.406 274.533 147.137 274.533 146.12 273.925L109.795 252.198C107.708 250.949 107.707 247.926 109.793 246.676L146.119 224.924C147.136 224.315 148.406 224.315 149.424 224.924L185.774 246.676C187.862 247.925 187.861 250.95 185.773 252.198L149.423 273.925Z"/><path fill="url(#paint44_linear)" d="M149.424 261.989C148.406 262.598 147.136 262.597 146.119 261.988L108.64 239.546C107.075 238.609 107.075 236.341 108.641 235.405L143.643 214.469C146.185 212.948 149.357 212.948 151.899 214.467L186.927 235.404C188.493 236.341 188.493 238.609 186.928 239.546L149.424 261.989Z"/><g filter="url(#filter3_d)"><path fill="#7E40F9" d="M470.024 134.392V41.7375C470.024 36.9249 473.949 33 478.762 33L640.335 33C645.147 33 649.072 36.9249 649.072 41.7375V134.392C649.072 139.205 645.147 143.13 640.335 143.13L478.715 143.13C473.902 143.13 470.024 139.251 470.024 134.392Z"/></g><g filter="url(#filter4_d)"><path fill="url(#paint45_linear)" d="M470.024 134.392V41.7375C470.024 36.9249 473.949 33 478.762 33L640.335 33C645.147 33 649.072 36.9249 649.072 41.7375V134.392C649.072 139.205 645.147 143.13 640.335 143.13L478.715 143.13C473.902 143.13 470.024 139.251 470.024 134.392Z"/></g><path stroke="url(#paint46_linear)" stroke-width="2" d="M471.024 134.392V41.7375C471.024 37.4771 474.501 34 478.762 34L640.335 34C644.595 34 648.072 37.4771 648.072 41.7375V134.392C648.072 138.652 644.595 142.13 640.335 142.13L478.715 142.13C474.458 142.13 471.024 138.703 471.024 134.392Z"/><path fill="#fff" d="M608.468 67.9967V53.6523C608.468 52.3907 609.496 51.3628 610.758 51.3628H628.419C629.681 51.3628 630.709 52.3907 630.709 53.6523V67.9967C630.709 69.2583 629.681 70.2862 628.419 70.2862H610.758C609.496 70.2862 608.468 69.2583 608.468 67.9967Z"/><g style="mix-blend-mode:overlay"><path fill="#D6D0FF" fill-opacity=".6" d="M519.968 105.89C519.968 126.169 536.415 142.616 556.693 142.616L556.693 105.89L519.968 105.89Z"/></g><g style="mix-blend-mode:overlay"><path fill="#D6D0FF" fill-opacity=".6" d="M519.968 69.7285C519.968 49.4501 536.415 33.0031 556.693 33.0031L556.693 69.7285L519.968 69.7285Z"/></g><g style="mix-blend-mode:overlay"><path fill="#BCB1FA" fill-opacity=".4" d="M593.139 106.17C593.139 85.8913 576.692 69.4442 556.413 69.4442L556.413 106.17L593.139 106.17Z"/></g><g style="mix-blend-mode:overlay"><path fill="#2F2662" fill-opacity=".4" d="M483.34 33.0483C483.34 53.3268 499.787 69.7738 520.065 69.7738V33.0483L483.34 33.0483Z"/></g><path stroke="#302379" stroke-miterlimit="10" stroke-width=".484" d="M495.629 129.252C500.196 129.252 503.899 125.55 503.899 120.982C503.899 116.415 500.196 112.712 495.629 112.712C491.061 112.712 487.359 116.415 487.359 120.982C487.359 125.55 491.061 129.252 495.629 129.252Z"/><path stroke="#302379" stroke-miterlimit="10" stroke-width=".484" d="M507.918 129.252C512.485 129.252 516.188 125.55 516.188 120.982C516.188 116.415 512.485 112.712 507.918 112.712C503.35 112.712 499.648 116.415 499.648 120.982C499.648 125.55 503.35 129.252 507.918 129.252Z"/><path stroke="#2C2650" stroke-miterlimit="10" stroke-width=".323" d="M616.406 51.364V58.0923H608.509"/><path stroke="#2C2650" stroke-miterlimit="10" stroke-width=".323" d="M608.467 62.9966H620.475V70.2856"/><path stroke="#2C2650" stroke-miterlimit="10" stroke-width=".323" d="M621.597 51.363V55.8019H616.41"/><path stroke="#2C2650" stroke-miterlimit="10" stroke-width=".323" d="M618.466 62.9993V59.5884H626.083V70.2883"/><path stroke="#2C2650" stroke-miterlimit="10" stroke-width=".323" d="M630.708 59.5865H626.082V51.363"/><path stroke="#2C2650" stroke-miterlimit="10" stroke-width=".323" d="M613 70.0985V63.23"/><path stroke="#2C2650" stroke-miterlimit="10" stroke-width=".323" d="M620.475 65.9888H630.427"/><g opacity=".5"><rect width="51.474" height="5.939" x="87.412" y="405.015" fill="#fff" rx="1.391" style="mix-blend-mode:overlay"/><rect width="23.757" height="5.939" x="87.413" y="389.177" fill="#fff" rx="1.391" style="mix-blend-mode:overlay"/><rect width="51.474" height="5.939" x="87.412" y="464.407" fill="#fff" rx="1.391" style="mix-blend-mode:overlay"/><rect width="41.575" height="5.939" x="87.412" y="454.508" fill="#fff" rx="1.391" style="mix-blend-mode:overlay"/><rect width="11.879" height="5.939" x="87.412" y="434.711" fill="#fff" rx="1.391" style="mix-blend-mode:overlay"/><rect width="35.636" height="5.939" x="103.25" y="434.711" fill="#fff" rx="1.391" style="mix-blend-mode:overlay"/><rect width="7.919" height="5.939" x="154.724" y="420.853" fill="#fff" rx="1.391" transform="rotate(-180 154.724 420.853)" style="mix-blend-mode:overlay"/><rect width="7.919" height="5.939" x="87.412" y="444.61" fill="#fff" rx="1.391" style="mix-blend-mode:overlay"/><rect width="25.737" height="5.939" x="142.846" y="405.015" fill="#fff" rx="1.391" style="mix-blend-mode:overlay"/><rect width="25.737" height="5.939" x="142.846" y="464.407" fill="#fff" rx="1.391" style="mix-blend-mode:overlay"/><rect width="19.798" height="5.939" x="132.947" y="454.508" fill="#fff" rx="1.391" style="mix-blend-mode:overlay"/><rect width="25.737" height="5.939" x="142.846" y="434.711" fill="#fff" rx="1.391" style="mix-blend-mode:overlay"/><rect width="25.737" height="5.939" x="142.846" y="420.853" fill="#fff" rx="1.391" transform="rotate(-180 142.846 420.853)" style="mix-blend-mode:overlay"/><rect width="25.737" height="5.939" x="99.934" y="444.829" fill="#fff" rx="1.391" style="mix-blend-mode:overlay"/><rect width="5.939" height="5.939" x="123.048" y="430.751" fill="#fff" rx="1.391" transform="rotate(-180 123.048 430.751)" style="mix-blend-mode:overlay"/><rect width="19.798" height="5.939" x="156.704" y="454.508" fill="#fff" rx="1.391" style="mix-blend-mode:overlay"/><rect width="25.737" height="5.939" x="113.149" y="420.853" fill="#fff" rx="1.391" transform="rotate(-180 113.149 420.853)" style="mix-blend-mode:overlay"/><rect width="25.737" height="5.939" x="128.987" y="444.61" fill="#fff" rx="1.391" style="mix-blend-mode:overlay"/><rect width="25.737" height="5.939" x="113.149" y="430.751" fill="#fff" rx="1.391" transform="rotate(-180 113.149 430.751)" style="mix-blend-mode:overlay"/></g><defs><filter id="filter0_d" width="544.036" height="484.036" x="70.675" y="24.289" color-interpolation-filters="sRGB" filterUnits="userSpaceOnUse"><feFlood flood-opacity="0" result="BackgroundImageFix"/><feColorMatrix in="SourceAlpha" result="hardAlpha" type="matrix" values="0 0 0 0 0 0 0 0 0 0 0 0 0 0 0 0 0 0 127 0"/><feOffset dx="-21.807" dy="21.807"/><feGaussianBlur stdDeviation="27.259"/><feColorMatrix type="matrix" values="0 0 0 0 0.0775 0 0 0 0 0.1085 0 0 0 0 0.3875 0 0 0 0.21 0"/><feBlend in2="BackgroundImageFix" mode="normal" result="effect1_dropShadow"/><feBlend in="SourceGraphic" in2="effect1_dropShadow" mode="normal" result="shape"/></filter><filter id="filter1_d" width="123.133" height="139.758" x="521.826" y="192.134" color-interpolation-filters="sRGB" filterUnits="userSpaceOnUse"><feFlood flood-opacity="0" result="BackgroundImageFix"/><feColorMatrix in="SourceAlpha" result="hardAlpha" type="matrix" values="0 0 0 0 0 0 0 0 0 0 0 0 0 0 0 0 0 0 127 0"/><feOffset dy="17.085"/><feGaussianBlur stdDeviation="12.06"/><feColorMatrix type="matrix" values="0 0 0 0 0.258824 0 0 0 0 0.0784314 0 0 0 0 0.67451 0 0 0 0.5 0"/><feBlend in2="BackgroundImageFix" mode="normal" result="effect1_dropShadow"/><feBlend in="SourceGraphic" in2="effect1_dropShadow" mode="normal" result="shape"/></filter><filter id="filter2_d" width="195.112" height="321.204" x="469.201" y="330.227" color-interpolation-filters="sRGB" filterUnits="userSpaceOnUse"><feFlood flood-opacity="0" result="BackgroundImageFix"/><feColorMatrix in="SourceAlpha" result="hardAlpha" type="matrix" values="0 0 0 0 0 0 0 0 0 0 0 0 0 0 0 0 0 0 127 0"/><feOffset dx="-11.946" dy="30.528"/><feGaussianBlur stdDeviation="15.264"/><feColorMatrix type="matrix" values="0 0 0 0 0.181209 0 0 0 0 0.147135 0 0 0 0 0.470833 0 0 0 0.4 0"/><feBlend in2="BackgroundImageFix" mode="normal" result="effect1_dropShadow"/><feBlend in="SourceGraphic" in2="effect1_dropShadow" mode="normal" result="shape"/></filter><filter id="filter3_d" width="288.084" height="219.166" x="393.699" y=".289" color-interpolation-filters="sRGB" filterUnits="userSpaceOnUse"><feFlood flood-opacity="0" result="BackgroundImageFix"/><feColorMatrix in="SourceAlpha" result="hardAlpha" type="matrix" values="0 0 0 0 0 0 0 0 0 0 0 0 0 0 0 0 0 0 127 0"/><feOffset dx="-21.807" dy="21.807"/><feGaussianBlur stdDeviation="27.259"/><feColorMatrix type="matrix" values="0 0 0 0 0.88563 0 0 0 0 0.0579515 0 0 0 0 0.1626 0 0 0 0.21 0"/><feBlend in2="BackgroundImageFix" mode="normal" result="effect1_dropShadow"/><feBlend in="SourceGraphic" in2="effect1_dropShadow" mode="normal" result="shape"/></filter><filter id="filter4_d" width="288.084" height="219.166" x="393.699" y=".289" color-interpolation-filters="sRGB" filterUnits="userSpaceOnUse"><feFlood flood-opacity="0" result="BackgroundImageFix"/><feColorMatrix in="SourceAlpha" result="hardAlpha" type="matrix" values="0 0 0 0 0 0 0 0 0 0 0 0 0 0 0 0 0 0 127 0"/><feOffset dx="-21.807" dy="21.807"/><feGaussianBlur stdDeviation="27.259"/><feColorMatrix type="matrix" values="0 0 0 0 0.88563 0 0 0 0 0.0579515 0 0 0 0 0.1626 0 0 0 0.21 0"/><feBlend in2="BackgroundImageFix" mode="normal" result="effect1_dropShadow"/><feBlend in="SourceGraphic" in2="effect1_dropShadow" mode="normal" result="shape"/></filter><linearGradient id="paint0_linear" x1="31.76" x2="135.413" y1="489.351" y2="396.133" gradientUnits="userSpaceOnUse"><stop stop-color="#BFA4EC"/><stop offset="1" stop-color="#A174EB" stop-opacity="0"/></linearGradient><linearGradient id="paint1_linear" x1="106.5" x2="575.5" y1="-5.5" y2="361.5" gradientUnits="userSpaceOnUse"><stop stop-color="#FFE5E4"/><stop offset="1" stop-color="#FFFDFD" stop-opacity="0"/></linearGradient><linearGradient id="paint2_linear" x1="62.5" x2="143.417" y1="84.5" y2="235.211" gradientUnits="userSpaceOnUse"><stop stop-color="#fff"/><stop offset="1" stop-color="#fff" stop-opacity="0"/></linearGradient><linearGradient id="paint3_linear" x1="370.792" x2="359.362" y1="371.285" y2="418.789" gradientUnits="userSpaceOnUse"><stop offset=".01" stop-color="#330A66"/><stop offset=".22" stop-color="#3C1078" stop-opacity=".89"/><stop offset=".55" stop-color="#5422A9" stop-opacity=".61"/><stop offset=".97" stop-color="#7B3EF9" stop-opacity=".14"/><stop offset="1" stop-color="#7E40FF" stop-opacity=".1"/></linearGradient><linearGradient id="paint4_linear" x1="388.831" x2="382.578" y1="192.517" y2="224.807" gradientUnits="userSpaceOnUse"><stop offset=".01" stop-color="#7284FF"/><stop offset="1" stop-color="#AA9BFF"/></linearGradient><linearGradient id="paint5_linear" x1="927842" x2="919660" y1="214827" y2="223018" gradientUnits="userSpaceOnUse"><stop offset=".01" stop-color="#7284FF"/><stop offset="1" stop-color="#AA9BFF"/></linearGradient><linearGradient id="paint6_linear" x1="927931" x2="919748" y1="223799" y2="231989" gradientUnits="userSpaceOnUse"><stop offset=".01" stop-color="#7284FF"/><stop offset="1" stop-color="#AA9BFF"/></linearGradient><linearGradient id="paint7_linear" x1="215.163" x2="311.063" y1="338.133" y2="338.133" gradientUnits="userSpaceOnUse"><stop offset=".01" stop-color="#5A68C9"/><stop offset="1" stop-color="#867AC9"/></linearGradient><linearGradient id="paint8_linear" x1="334.502" x2="328.249" y1="276.059" y2="308.35" gradientUnits="userSpaceOnUse"><stop offset=".01" stop-color="#4F5BB0"/><stop offset="1" stop-color="#766BB0"/></linearGradient><linearGradient id="paint9_linear" x1="890261" x2="882078" y1="232576" y2="240767" gradientUnits="userSpaceOnUse"><stop offset=".01" stop-color="#4F5BB0"/><stop offset="1" stop-color="#766BB0"/></linearGradient><linearGradient id="paint10_linear" x1="262.682" x2="358.505" y1="351.573" y2="351.573" gradientUnits="userSpaceOnUse"><stop offset=".01" stop-color="#7284FF"/><stop offset=".26" stop-color="#7282FF"/><stop offset=".34" stop-color="#747BFF"/><stop offset=".41" stop-color="#7670FF"/><stop offset=".46" stop-color="#795FFF"/><stop offset=".5" stop-color="#7C49FF"/><stop offset=".51" stop-color="#7E40FF"/><stop offset=".69" stop-color="#7C3EFF"/><stop offset=".79" stop-color="#7735FF"/><stop offset=".87" stop-color="#6E27FF"/><stop offset=".95" stop-color="#6213FF"/><stop offset="1" stop-color="#5600FF"/></linearGradient><linearGradient id="paint11_linear" x1="277.858" x2="318.127" y1="363.783" y2="363.783" gradientUnits="userSpaceOnUse"><stop stop-color="#25054D"/><stop offset="1" stop-color="#45108A"/></linearGradient><linearGradient id="paint12_linear" x1="946046" x2="937863" y1="223757" y2="231948" gradientUnits="userSpaceOnUse"><stop offset=".01" stop-color="#7284FF"/><stop offset="1" stop-color="#AA9BFF"/></linearGradient><linearGradient id="paint13_linear" x1="475.698" x2="486.721" y1="306.636" y2="336.193" gradientUnits="userSpaceOnUse"><stop offset=".01" stop-color="#330A66"/><stop offset=".18" stop-color="#330A66" stop-opacity=".91"/><stop offset=".45" stop-color="#330A66" stop-opacity=".67"/><stop offset=".79" stop-color="#330A66" stop-opacity=".28"/><stop offset="1" stop-color="#330A66" stop-opacity="0"/></linearGradient><linearGradient id="paint14_linear" x1="435.901" x2="429.648" y1="282.371" y2="314.662" gradientUnits="userSpaceOnUse"><stop offset=".01" stop-color="#6575E2"/><stop offset="1" stop-color="#9789E2"/></linearGradient><linearGradient id="paint15_linear" x1="964115" x2="955933" y1="205636" y2="213827" gradientUnits="userSpaceOnUse"><stop offset=".01" stop-color="#7284FF"/><stop offset="1" stop-color="#AA9BFF"/></linearGradient><linearGradient id="paint16_linear" x1="964233" x2="956051" y1="214596" y2="222787" gradientUnits="userSpaceOnUse"><stop offset=".01" stop-color="#7284FF"/><stop offset="1" stop-color="#AA9BFF"/></linearGradient><linearGradient id="paint17_linear" x1="963852" x2="955670" y1="225664" y2="233855" gradientUnits="userSpaceOnUse"><stop offset=".01" stop-color="#7284FF"/><stop offset="1" stop-color="#AA9BFF"/></linearGradient><linearGradient id="paint18_linear" x1="86697" x2="88114.9" y1="30231.8" y2="33535" gradientUnits="userSpaceOnUse"><stop offset=".01" stop-color="#330A66"/><stop offset=".18" stop-color="#330A66" stop-opacity=".91"/><stop offset=".45" stop-color="#330A66" stop-opacity=".67"/><stop offset=".79" stop-color="#330A66" stop-opacity=".28"/><stop offset="1" stop-color="#330A66" stop-opacity="0"/></linearGradient><linearGradient id="paint19_linear" x1="86697" x2="88115.1" y1="40727" y2="44030.2" gradientUnits="userSpaceOnUse"><stop offset=".01" stop-color="#7284FF"/><stop offset="1" stop-color="#AA9BFF"/></linearGradient><linearGradient id="paint20_linear" x1="453.675" x2="503.338" y1="245.816" y2="242.096" gradientUnits="userSpaceOnUse"><stop offset=".01" stop-color="#fff" stop-opacity="0"/><stop offset=".42" stop-color="#fff" stop-opacity=".82"/><stop offset=".52" stop-color="#fff"/><stop offset=".91" stop-color="#fff" stop-opacity=".18"/><stop offset="1" stop-color="#fff" stop-opacity="0"/></linearGradient><linearGradient id="paint21_linear" x1="946029" x2="937846" y1="205689" y2="213880" gradientUnits="userSpaceOnUse"><stop offset=".01" stop-color="#7284FF"/><stop offset="1" stop-color="#AA9BFF"/></linearGradient><linearGradient id="paint22_linear" x1="946116" x2="937934" y1="214638" y2="222829" gradientUnits="userSpaceOnUse"><stop offset=".01" stop-color="#7284FF"/><stop offset="1" stop-color="#AA9BFF"/></linearGradient><linearGradient id="paint23_linear" x1="928266" x2="920084" y1="203754" y2="211945" gradientUnits="userSpaceOnUse"><stop offset=".01" stop-color="#4F5BB0"/><stop offset="1" stop-color="#766BB0"/></linearGradient><linearGradient id="paint24_linear" x1="211.566" x2="8048.5" y1="20944.8" y2="20944.8" gradientUnits="userSpaceOnUse"><stop stop-color="#25054D"/><stop offset="1" stop-color="#45108A"/></linearGradient><linearGradient id="paint25_linear" x1="211.566" x2="31509.4" y1="35361.8" y2="35361.8" gradientUnits="userSpaceOnUse"><stop offset=".01" stop-color="#7284FF"/><stop offset=".26" stop-color="#7282FF"/><stop offset=".34" stop-color="#747BFF"/><stop offset=".41" stop-color="#7670FF"/><stop offset=".46" stop-color="#795FFF"/><stop offset=".5" stop-color="#7C49FF"/><stop offset=".51" stop-color="#7E40FF"/><stop offset=".69" stop-color="#7C3EFF"/><stop offset=".79" stop-color="#7735FF"/><stop offset=".87" stop-color="#6E27FF"/><stop offset=".95" stop-color="#6213FF"/><stop offset="1" stop-color="#5600FF"/></linearGradient><linearGradient id="paint26_linear" x1="52635" x2="60269.9" y1="30223.1" y2="16117.7" gradientUnits="userSpaceOnUse"><stop offset=".01" stop-color="#330A66"/><stop offset=".18" stop-color="#330A66" stop-opacity=".91"/><stop offset=".45" stop-color="#330A66" stop-opacity=".67"/><stop offset=".79" stop-color="#330A66" stop-opacity=".28"/><stop offset="1" stop-color="#330A66" stop-opacity="0"/></linearGradient><linearGradient id="paint27_linear" x1="211.566" x2="31559.3" y1="15765.7" y2="15765.7" gradientUnits="userSpaceOnUse"><stop offset=".01" stop-color="#7284FF"/><stop offset="1" stop-color="#AA9BFF"/></linearGradient><linearGradient id="paint28_linear" x1="-1480.11" x2="3783.24" y1="16312.2" y2="16085.7" gradientUnits="userSpaceOnUse"><stop offset=".01" stop-color="#fff" stop-opacity="0"/><stop offset=".42" stop-color="#fff" stop-opacity=".82"/><stop offset=".52" stop-color="#fff"/><stop offset=".91" stop-color="#fff" stop-opacity=".18"/><stop offset="1" stop-color="#fff" stop-opacity="0"/></linearGradient><linearGradient id="paint29_linear" x1="1021670" x2="1021300" y1="-320472" y2="-311693" gradientUnits="userSpaceOnUse"><stop offset=".01" stop-color="#5A68C9"/><stop offset="1" stop-color="#867AC9"/></linearGradient><linearGradient id="paint30_linear" x1="1028290" x2="1027920" y1="-334728" y2="-325948" gradientUnits="userSpaceOnUse"><stop offset=".01" stop-color="#5A68C9"/><stop offset="1" stop-color="#867AC9"/></linearGradient><linearGradient id="paint31_linear" x1="34517.9" x2="65865.6" y1="26312.7" y2="26312.7" gradientUnits="userSpaceOnUse"><stop offset=".01" stop-color="#7284FF"/><stop offset="1" stop-color="#AA9BFF"/></linearGradient><linearGradient id="paint32_linear" x1="34517.9" x2="65865.6" y1="14586.3" y2="14586.3" gradientUnits="userSpaceOnUse"><stop offset=".01" stop-color="#fff" stop-opacity="0"/><stop offset=".42" stop-color="#fff" stop-opacity=".82"/><stop offset=".52" stop-color="#fff"/><stop offset=".91" stop-color="#fff" stop-opacity=".18"/><stop offset="1" stop-color="#fff" stop-opacity="0"/></linearGradient><linearGradient id="paint33_linear" x1="34490.7" x2="65788.6" y1="51102.2" y2="51102.2" gradientUnits="userSpaceOnUse"><stop offset=".01" stop-color="#7284FF"/><stop offset=".26" stop-color="#7282FF"/><stop offset=".34" stop-color="#747BFF"/><stop offset=".41" stop-color="#7670FF"/><stop offset=".46" stop-color="#795FFF"/><stop offset=".5" stop-color="#7C49FF"/><stop offset=".51" stop-color="#7E40FF"/><stop offset=".69" stop-color="#7C3EFF"/><stop offset=".79" stop-color="#7735FF"/><stop offset=".87" stop-color="#6E27FF"/><stop offset=".95" stop-color="#6213FF"/><stop offset="1" stop-color="#5600FF"/></linearGradient><linearGradient id="paint34_linear" x1="-42109.4" x2="-33105.3" y1="25878.8" y2="25878.8" gradientUnits="userSpaceOnUse"><stop stop-color="#25054D"/><stop offset="1" stop-color="#45108A"/></linearGradient><linearGradient id="paint35_linear" x1="12822.9" x2="13670.6" y1="37465.3" y2="37465.3" gradientUnits="userSpaceOnUse"><stop offset=".01" stop-color="#330A66"/><stop offset=".18" stop-color="#330A66" stop-opacity=".91"/><stop offset=".45" stop-color="#330A66" stop-opacity=".67"/><stop offset=".79" stop-color="#330A66" stop-opacity=".28"/><stop offset="1" stop-color="#330A66" stop-opacity="0"/></linearGradient><linearGradient id="paint36_linear" x1="13969.6" x2="14895.6" y1="98707.6" y2="98707.6" gradientUnits="userSpaceOnUse"><stop offset=".01" stop-color="#330A66"/><stop offset=".18" stop-color="#330A66" stop-opacity=".91"/><stop offset=".45" stop-color="#330A66" stop-opacity=".67"/><stop offset=".79" stop-color="#330A66" stop-opacity=".28"/><stop offset="1" stop-color="#330A66" stop-opacity="0"/></linearGradient><linearGradient id="paint37_linear" x1="13863.6" x2="9620.17" y1="59115.5" y2="55890.5" gradientUnits="userSpaceOnUse"><stop offset=".01" stop-color="#fff" stop-opacity="0"/><stop offset=".42" stop-color="#fff" stop-opacity=".82"/><stop offset=".52" stop-color="#fff"/><stop offset=".91" stop-color="#fff" stop-opacity=".18"/><stop offset="1" stop-color="#fff" stop-opacity="0"/></linearGradient><linearGradient id="paint38_linear" x1="243.09" x2="270.116" y1="217.002" y2="217.002" gradientUnits="userSpaceOnUse"><stop stop-color="#400084"/><stop offset=".2" stop-color="#3D067B" stop-opacity=".84"/><stop offset=".62" stop-color="#341666" stop-opacity=".42"/><stop offset="1" stop-color="#2C2650" stop-opacity="0"/></linearGradient><linearGradient id="paint39_linear" x1="601.382" x2="608.98" y1="203.401" y2="267.22" gradientUnits="userSpaceOnUse"><stop stop-color="#D7D0FF"/><stop offset="1" stop-color="#D7D0FF" stop-opacity="0"/></linearGradient><linearGradient id="paint40_linear" x1="172.805" x2="172.805" y1="359.455" y2="455.862" gradientUnits="userSpaceOnUse"><stop stop-color="#fff"/><stop offset="1" stop-color="#fff" stop-opacity=".28"/></linearGradient><linearGradient id="paint41_linear" x1="578.702" x2="578.702" y1="330.227" y2="589.049" gradientUnits="userSpaceOnUse"><stop stop-color="#C7D6FF"/><stop offset="1" stop-color="#3D73FF" stop-opacity="0"/></linearGradient><linearGradient id="paint42_linear" x1="471" x2="624" y1="294" y2="369.5" gradientUnits="userSpaceOnUse"><stop stop-color="#fff"/><stop offset="1" stop-color="#fff" stop-opacity="0"/></linearGradient><linearGradient id="paint43_linear" x1="578.703" x2="578.703" y1="363" y2="593.5" gradientUnits="userSpaceOnUse"><stop stop-color="#D9CBFF"/><stop offset="1" stop-color="#fff" stop-opacity="0"/></linearGradient><linearGradient id="paint44_linear" x1="147.785" x2="150.489" y1="212" y2="267.333" gradientUnits="userSpaceOnUse"><stop stop-color="#FF9D75"/><stop offset="1" stop-color="#FDBEB3" stop-opacity="0"/></linearGradient><linearGradient id="paint45_linear" x1="454.554" x2="662.684" y1="29.308" y2="159.67" gradientUnits="userSpaceOnUse"><stop stop-color="#FCC"/><stop offset=".688" stop-color="#FF9998" stop-opacity=".64"/></linearGradient><linearGradient id="paint46_linear" x1="388" x2="510.037" y1="88" y2="186.295" gradientUnits="userSpaceOnUse"><stop stop-color="#fff"/><stop offset="1" stop-color="#fff" stop-opacity="0"/></linearGradient><clipPath id="clip0"><rect width="305.939" height="344.891" fill="#fff" transform="translate(211.566 81.696)"/></clipPath></defs></svg>